<svg xmlns="http://www.w3.org/2000/svg" id="Layer_1" width="25.1" height="19.2" viewBox="0 0 25.1 19.2"><style>.st0{fill:#231f20}</style><circle cx="10.2" cy="17" r="2.3" class="st0"/><circle cx="19.1" cy="17" r="2.3" class="st0"/><path d="M5.5 3.4L4.2 0H0v1.1h3.4l1.2 3.2L7.1 14h15.2l2.9-10.6H5.5zm9.8 1.1h3.6v1.8h-3.6V4.5zm0 3.1h3.6v2.2h-3.6V7.6zM5.8 4.5h3.6l.1 1.8H6.3l-.5-1.8zm.8 3.1h2.9l.1 2.2H7.1l-.5-2.2zM8 12.8L7.5 11h2.2l.1 1.8H8zm6.1 0h-3l-.2-1.8H14v1.8zm0-3h-3.2l-.1-2.2h3.3v2.2zm0-3.4h-3.4l-.1-1.8h3.5v1.8zm1.2 4.5h3.6v1.9h-3.7v-1.9zm6.1 1.9h-1.3v-1.9h1.8l-.5 1.9zm.8-3.1H20V7.5h2.8l-.6 2.2zm-2.1-3.3V4.6h3.6l-.5 1.8h-3.1z" class="st0"/></svg>