<svg height="22.41" viewBox="0 0 62.63 22.41" width="62.63" xmlns="http://www.w3.org/2000/svg"><g fill="#231f20"><path d="m26.84 15.32-1.92-4.75v4.75h-1.26v-8.25h1.26l1.92 4.83v-4.83h1.25v8.25zm6.52-5.97v3.65a2.22 2.22 0 1 1 -4.43 0v-3.65a2.13 2.13 0 0 1 2.21-2.43 2.16 2.16 0 0 1 2.22 2.43zm-1.26 0c0-.35 0-1.2-1-1.2s-1 .85-1 1.2v3.65c0 .35 0 1.2 1 1.2s1-.85 1-1.2zm7.9 2.32 1.1 3.65h-1.36l-1-3.33h-.83v3.33h-1.26v-8.25h2a2.23 2.23 0 0 1 2.4 2.36 2.4 2.4 0 0 1 -1.05 2.24zm-1.37-.92a1.14 1.14 0 0 0 1.22-1.3 1.1 1.1 0 0 0 -1.15-1.18h-.77v2.47zm7.73-1.4v3.65a2.22 2.22 0 1 1 -4.43 0v-3.65a2.13 2.13 0 0 1 2.21-2.43 2.16 2.16 0 0 1 2.22 2.43zm-1.26 0c0-.35 0-1.2-1-1.2s-1 .85-1 1.2v3.65c0 .35 0 1.2 1 1.2s1-.85 1-1.2zm3.32 3.65c0 .4.07 1.21 1 1.21a1 1 0 0 0 1-1.14 1.47 1.47 0 0 0 -1-1.37c-1.43-.64-2.17-1-2.17-2.52a2 2 0 0 1 2.21-2.31c1.79 0 2.22 1.31 2.22 2.43v.29h-1.26v-.24c0-.36-.1-1.22-1-1.22-1.06 0-1 .94-1 1.19s.22.84 1.12 1.19c1.06.42 2.1.94 2.1 2.61a2.09 2.09 0 0 1 -2.22 2.36c-1.77 0-2.21-1.32-2.21-2.43v-.75h1.21zm4.09 2.32v-8.25h4.43v1.25h-3.12v2.25h2.73v1.25h-2.73v2.24h3.11v1.26zm6.49-2.32c0 .4.07 1.21 1 1.21a1 1 0 0 0 1-1.14 1.47 1.47 0 0 0 -1-1.37c-1.43-.64-2.17-1-2.17-2.52a2 2 0 0 1 2.17-2.27c1.79 0 2.22 1.31 2.22 2.43v.29h-1.22v-.28c0-.36-.1-1.22-1-1.22-1.06 0-1 .94-1 1.19s.22.84 1.12 1.19c1.06.42 2.1.94 2.1 2.61a2.09 2.09 0 0 1 -2.22 2.36c-1.77 0-2.21-1.32-2.21-2.43v-.75h1.21zm-51.63 1.63s0-.08-.05-.12a.12.12 0 0 0 -.17 0c-.05.1-.13.23-.24.41a4.56 4.56 0 0 0 -.36.62.77.77 0 0 0 -.09.2 1.15 1.15 0 0 0 0 .22 3 3 0 0 0 0 .49v.27a1.94 1.94 0 0 0 .05.27.73.73 0 0 0 .32.44.92.92 0 0 1 .39.47 1.56 1.56 0 0 0 .42.47 2.68 2.68 0 0 0 .57.34l.32.13.33.13.32.11.34.07a1.63 1.63 0 0 0 .35 0h.19a.25.25 0 0 1 0-.17.3.3 0 0 1 .35-.14c.12.06.19.16.25.14s.25-.2.21-.4a2.71 2.71 0 0 0 -.06-.32l-.03-.26-.07-.29v-.34h.27a1.64 1.64 0 0 0 1.06-.35 8 8 0 0 0 .87-.67c.13-.11.26-.22.38-.33a1.81 1.81 0 0 0 .28-.33c.07-.12.14-.27.19-.38a1.42 1.42 0 0 1 .19-.34l.22-.29a1.76 1.76 0 0 0 .15-.22 2.69 2.69 0 0 0 .16-.33l.05-.13.05-.13.09-.24c0-.08.05-.15.07-.22a1.51 1.51 0 0 0 0-.21 1.71 1.71 0 0 0 0-.4 1.32 1.32 0 0 0 -.09-.33.67.67 0 0 0 -.31-.36c-.11 0-.19 0-.19-.06s.08-.07.24 0a.72.72 0 0 1 .46.39 1.33 1.33 0 0 1 .13.38 1.83 1.83 0 0 1 0 .73 2.44 2.44 0 0 1 -.08.26l-.09.24v.12l-.05.13a2.82 2.82 0 0 1 -.18.36 1.92 1.92 0 0 1 -.17.24l-.19.25a1.25 1.25 0 0 0 -.2.33c-.07.13-.12.25-.2.39a2 2 0 0 1 -.32.38c-.12.12-.25.23-.39.34a8.49 8.49 0 0 1 -.9.67 1.93 1.93 0 0 1 -1.2.38h-.19l.15-.15v.14l.03.37.11.63a.53.53 0 0 1 -.32.63.32.32 0 0 1 -.22 0l-.13-.1c-.08-.07-.11 0-.17 0a.1.1 0 0 0 0 .07v.12h-.27a1.77 1.77 0 0 1 -.38 0 2.69 2.69 0 0 1 -.37-.07l-.36-.11-.33-.12-.32-.13a3.06 3.06 0 0 1 -.61-.34 1.88 1.88 0 0 1 -.49-.51c-.13-.21-.15-.33-.33-.42a.94.94 0 0 1 -.44-.56 2.07 2.07 0 0 1 -.07-.3v-.27a3.38 3.38 0 0 1 0-.53 1.36 1.36 0 0 1 0-.26.76.76 0 0 1 .09-.22l.21-.39.06-.12.09-.12a4.61 4.61 0 0 1 .3-.38c0-.09.29-.1.32 0s0 .16 0 .13z"/><path d="m6.63 9.56s0 .05-.1.09a1.78 1.78 0 0 0 -.27.18 1.47 1.47 0 0 0 -.32.38 2.09 2.09 0 0 0 -.23.62v.81a2.82 2.82 0 0 0 0 .44.73.73 0 0 0 .14.41l.12.22a2.17 2.17 0 0 1 .1.23 1.93 1.93 0 0 1 .11.51v.51a.45.45 0 0 0 .28.32 1.75 1.75 0 0 0 .44.12l.24.06.23.09.21.1a.48.48 0 0 0 .2 0 2 2 0 0 0 .43 0h.87a2.37 2.37 0 0 0 .39-.06l.36-.13.36-.15.33-.11c.19-.07.37-.16.54-.23a3.21 3.21 0 0 1 .76-.19 2.46 2.46 0 0 1 .41 0 2.2 2.2 0 0 1 .37.07h.11a.18.18 0 0 0 0-.08.51.51 0 0 0 -.23-.22c-.07 0-.12-.06-.12-.08s.06 0 .16 0a.53.53 0 0 1 .37.24v.15a.41.41 0 0 1 0 .19.33.33 0 0 1 -.36.22 3 3 0 0 0 -.34 0h-.38a3 3 0 0 0 -.68.16c-.16.06-.34.15-.56.23l-.33.11-.33.13-.39.13a2.38 2.38 0 0 1 -.44.06h-.87a2.21 2.21 0 0 1 -.47 0 .77.77 0 0 1 -.24-.06l-.21-.11-.29-.29-.22-.06a2.26 2.26 0 0 1 -.47-.13.64.64 0 0 1 -.42-.44 3.87 3.87 0 0 1 0-.53 1.73 1.73 0 0 0 -.11-.47 1.68 1.68 0 0 0 -.1-.22l-.12-.21a.94.94 0 0 1 -.18-.49 2.6 2.6 0 0 1 0-.47v-.83a2.12 2.12 0 0 1 .25-.69 1.37 1.37 0 0 1 .39-.43.84.84 0 0 1 .34-.14c.22 0 .27.02.27.04zm-2.94.99v.11a1.83 1.83 0 0 1 -.13.24l-.2.35a2.87 2.87 0 0 0 -.21.48v.14a1.26 1.26 0 0 0 0 .14v.68a1.82 1.82 0 0 0 0 .35v.79a3.73 3.73 0 0 0 0 .4.37.37 0 0 0 .16.3l.16.11a.57.57 0 0 1 .13.17 1.36 1.36 0 0 0 .08.15.12.12 0 0 0 .09.06l.23-.02a.32.32 0 0 1 .27 0c.15.15.14.28.2.3a.22.22 0 0 0 .21 0l.12-.07c.06 0 .08-.06.17-.06a.21.21 0 0 1 .16.13c.06.17 0 .23.08.27a.65.65 0 0 0 .24.1.7.7 0 0 1 .31.16.69.69 0 0 1 .16.28 3 3 0 0 1 .1.48.72.72 0 0 0 .19.46.57.57 0 0 0 .2.14l.25.08a1 1 0 0 1 .27.11.5.5 0 0 1 .11.1v.11c0 .12.06.18.11.21v-.12c0-.01.05 0 .09.09l.07.12h-.14c-.17.11-.17-.08-.27-.16h-.07a.92.92 0 0 0 -.21-.06 1.73 1.73 0 0 1 -.29-.07.79.79 0 0 1 -.33-.31 1 1 0 0 1 -.25-.6 2.93 2.93 0 0 0 -.08-.43.46.46 0 0 0 -.09-.18.42.42 0 0 0 -.2-.11.93.93 0 0 1 -.38-.15.53.53 0 0 1 -.14-.35.9.9 0 0 1 -.16.09.45.45 0 0 1 -.42 0c-.14-.11-.14-.27-.19-.32s0 0-.09 0a1.14 1.14 0 0 1 -.19 0 .3.3 0 0 1 -.23-.12.94.94 0 0 1 -.1-.18.44.44 0 0 0 -.22-.24.52.52 0 0 1 -.26-.41 3.32 3.32 0 0 1 0-.42v-.76a2.29 2.29 0 0 1 -.07-.39v-.7a1.28 1.28 0 0 1 0-.17v-.16a2.54 2.54 0 0 1 .22-.53 3 3 0 0 1 .24-.37 1.48 1.48 0 0 1 .18-.2s.1-.05.12-.04z"/><path d="m6.57 9.49s-.06 0-.1-.12a1.79 1.79 0 0 1 -.12-.37 3.18 3.18 0 0 1 -.07-.62 3.53 3.53 0 0 1 .08-.81c0-.07 0-.15.06-.22l.07-.22a2.61 2.61 0 0 1 .21-.47s0-.08 0 0a.67.67 0 0 0 -.23 0 1.11 1.11 0 0 0 -.47.14l-.22.2-.23.16a4.47 4.47 0 0 0 -.45.36 2.55 2.55 0 0 0 -.38.44 1.61 1.61 0 0 0 -.23.52 1 1 0 0 1 -.26.52c-.08.07-.15.11-.2.17a.27.27 0 0 0 -.03.16 2.11 2.11 0 0 1 0 .28.77.77 0 0 1 -.14.28.37.37 0 0 0 -.08.39.82.82 0 0 0 .11.2l.08.1c0 .06.09.13.05.23s-.11.16-.14.23a1 1 0 0 0 -.07.21.85.85 0 0 0 0 .41 1.22 1.22 0 0 0 .19.37c.08.11.18.23.27.34l.25.31a3.42 3.42 0 0 1 .22.31 1.35 1.35 0 0 1 .11.33 1.11 1.11 0 0 0 .41.65 1.63 1.63 0 0 0 .34.22l.37.17.34.14.15.06h.14a3.73 3.73 0 0 1 .38.22c.08.06.13.09.12.11s-.07 0-.17 0l-.42-.14h-.29l-.35-.11-.38-.15a1.77 1.77 0 0 1 -.49-.31 1.39 1.39 0 0 1 -.48-.78 2.75 2.75 0 0 0 -.07-.29c-.07-.08-.1-.16-.19-.27l-.26-.3-.25-.34a1.53 1.53 0 0 1 -.22-.45 1.06 1.06 0 0 1 0-.55 1.12 1.12 0 0 1 .06-.2 1.21 1.21 0 0 1 .14-.22s-.15-.2-.21-.37a.57.57 0 0 1 .09-.58.92.92 0 0 0 .13-.2 1 1 0 0 0 0-.24.52.52 0 0 1 .12-.39 1.31 1.31 0 0 1 .23-.19.68.68 0 0 0 .22-.43 1.83 1.83 0 0 1 .25-.57 2.75 2.75 0 0 1 .44-.41 4.39 4.39 0 0 1 .42-.4l.23-.17.22-.16a1.38 1.38 0 0 1 .54-.26.85.85 0 0 1 .31 0s.14 0 .18.12a.24.24 0 0 1 0 .18 2.28 2.28 0 0 0 -.18.43l-.07.22c0 .07 0 .14-.05.22a3.78 3.78 0 0 0 -.08.77 4.58 4.58 0 0 0 0 .6l.06.38c.02.1.02.15-.01.16z"/><path d="m4.21 8.82s-.06 0-.09-.08a1 1 0 0 1 -.12-.27 1.75 1.75 0 0 1 0-.47 2 2 0 0 1 .12-.57l.05-.14.05-.14a.91.91 0 0 0 .06-.32v-.36a3.81 3.81 0 0 1 0-.38v-.2a1.39 1.39 0 0 0 0-.19.58.58 0 0 0 -.08-.36.52.52 0 0 1 .08-.34h.18a2.09 2.09 0 0 0 .41 0 .81.81 0 0 0 .33-.08.56.56 0 0 0 .13-.1.57.57 0 0 0 .09-.13l.08-.16.08-.18a.89.89 0 0 1 .29-.35 1.8 1.8 0 0 1 .34-.18l.15-.07.15-.09a2.69 2.69 0 0 1 .29-.15l.32-.12.31-.07h.28a.86.86 0 0 1 .54 0c.15.07.15.05.25 0a1 1 0 0 1 .25-.09.63.63 0 0 1 .39.09.88.88 0 0 0 .23.1h.47a.56.56 0 0 1 .28.19v.12c0 .02 0 0-.11 0a.8.8 0 0 0 -.26-.08h-.2a1.63 1.63 0 0 1 -.27 0 1 1 0 0 1 -.3-.1.4.4 0 0 0 -.23-.06l-.18.07a.51.51 0 0 1 -.46 0c-.1-.05-.19 0-.39 0h-.28l-.28.05-.28.09a2.42 2.42 0 0 0 -.3.15l-.1.15h-.16a1.88 1.88 0 0 0 -.32.18.65.65 0 0 0 -.21.24l-.08.16-.09.17a.84.84 0 0 1 -.12.18.7.7 0 0 1 -.17.13 1 1 0 0 1 -.41.1 2.16 2.16 0 0 1 -.44 0h-.14l.09-.06a.35.35 0 0 0 .05.22.79.79 0 0 1 .11.43 1.36 1.36 0 0 1 0 .21v.19a3.14 3.14 0 0 0 0 .37v.36a1.09 1.09 0 0 1 -.05.35l-.05.17-.05.16a2.05 2.05 0 0 0 -.1.52 2.63 2.63 0 0 0 0 .41v.27c-.1.01-.1.05-.13.06z"/><path d="m13.57 10.77s.05-.07.18-.13l.53-.23c.22-.09.51-.2.81-.35a2.78 2.78 0 0 0 .91-.69l.19-.25a2.58 2.58 0 0 0 .17-.28 4.63 4.63 0 0 0 .28-.66 6 6 0 0 0 .22-.73 4 4 0 0 0 .08-.76 2.25 2.25 0 0 1 0-.43c0-.15.09-.26.13-.4s0-.55.1-.86c.07-.14 0-.18-.06-.34s.07-.33 0-.42a5.59 5.59 0 0 0 -.6-.61c-.22-.19-.34-.38-.63-.38a.43.43 0 0 1 -.3-.15v-.11a.23.23 0 0 0 0-.08.35.35 0 0 0 -.06-.29.55.55 0 0 0 -.26-.21 2.21 2.21 0 0 0 -.26-.11 2.28 2.28 0 0 1 -.4-.12 1.18 1.18 0 0 0 -.34-.13 3.17 3.17 0 0 0 -.71 0 1.49 1.49 0 0 0 -.33.08 3.54 3.54 0 0 0 -.33.18 5.3 5.3 0 0 1 -.61.31 3.91 3.91 0 0 1 -.65.21c-.22.05-.44.08-.63.14a.77.77 0 0 0 -.42.27 5.71 5.71 0 0 0 -.35.9 4.06 4.06 0 0 0 -.54 1.11 1.24 1.24 0 0 0 0 .58 3 3 0 0 0 .22.55 4.7 4.7 0 0 0 .27.45l.14.19.07.1.06.1c.16.25.25.43.32.56s.1.2.09.22-.08 0-.19-.17-.24-.31-.4-.52l-.06-.08-.07-.08-.14-.15a4.1 4.1 0 0 1 -.3-.46 3 3 0 0 1 -.26-.54 1.49 1.49 0 0 1 -.06-.74 4 4 0 0 1 .56-1.14 6 6 0 0 1 .4-1 1 1 0 0 1 .56-.36c.2-.06.39-.08.6-.13a3.84 3.84 0 0 0 .63-.18 5.63 5.63 0 0 0 .64-.32c.1-.05.19-.12.3-.16a1.62 1.62 0 0 1 .38-.1 3.11 3.11 0 0 1 .78 0c.28 0 .48.22.74.25a3.12 3.12 0 0 1 .38.11.76.76 0 0 1 .36.25.59.59 0 0 1 .14.45.41.41 0 0 1 -.1.21v-.14a.21.21 0 0 0 .13.07.92.92 0 0 1 .4.12 2.51 2.51 0 0 1 .32.28c.21.22.43.39.63.64s0 .39 0 .45a.91.91 0 0 0 .09.17.32.32 0 0 1 0 .27c-.15.25 0 .51-.1.83l-.13.41a1.73 1.73 0 0 0 0 .38 4.9 4.9 0 0 1 -.07.84 5.85 5.85 0 0 1 -.21.75 5.38 5.38 0 0 1 -.26.67 3.14 3.14 0 0 1 -.18.32 3.38 3.38 0 0 1 -.21.28 2.86 2.86 0 0 1 -1 .76 7.09 7.09 0 0 1 -.86.35l-.55.17c-.1.03-.18.04-.18.01z"/><path d="m14 15.18.09.12a1 1 0 0 0 .24.28 1.24 1.24 0 0 0 .54.22 4.63 4.63 0 0 0 .8.06h.46l.5-.08a2.88 2.88 0 0 0 .52-.12 5.22 5.22 0 0 0 .5-.19l.27-.11a2.46 2.46 0 0 0 .27-.11l.54-.25a3.78 3.78 0 0 0 .48-.36 5 5 0 0 0 .45-.42c.11-.14.27-.25.33-.42a1.53 1.53 0 0 0 .08-.25l.05-.27.06-.28a1.4 1.4 0 0 1 .11-.29 1 1 0 0 1 .18-.25 1.64 1.64 0 0 1 -.37-.44.77.77 0 0 1 -.09-.3.63.63 0 0 1 .07-.32.33.33 0 0 0 0-.37 4.16 4.16 0 0 1 -.17-.44 3.55 3.55 0 0 0 -.36-.76c-.13-.2-.28-.39-.41-.56a5.29 5.29 0 0 0 -.53-.69c-.09-.11-.21-.17-.35-.31s-.11-.31-.2-.33l-.3-.2-.14-.07h-.14a1 1 0 0 0 -.41-.09h-.17c-.01 0 0-.07.16-.11a.89.89 0 0 1 .5 0h.14l.17.07a3.48 3.48 0 0 1 .34.19c.18.08.19.31.26.35s.22.17.35.31a5.43 5.43 0 0 1 .54.71c.12.17.26.35.42.6a3.65 3.65 0 0 1 .22.3 3.58 3.58 0 0 1 .16.41c.05.13.09.29.16.44a.61.61 0 0 1 .07.32.79.79 0 0 1 -.1.27.41.41 0 0 0 -.05.19.54.54 0 0 0 .05.21 1.31 1.31 0 0 0 .3.39.5.5 0 0 1 .11.12.19.19 0 0 1 0 .23.81.81 0 0 0 -.16.2 1.06 1.06 0 0 0 -.1.23c0 .08 0 .17-.06.26l-.06.28a2.06 2.06 0 0 1 -.09.28 1.62 1.62 0 0 1 -.36.47 4.43 4.43 0 0 1 -.47.43 4.33 4.33 0 0 1 -.5.38c-.18.1-.37.18-.55.27l-.28.12-.26.11c-.18.08-.36.16-.55.22a2.77 2.77 0 0 1 -.53.13l-.5.09h-.49a4.25 4.25 0 0 1 -.85-.06 1.27 1.27 0 0 1 -.63-.29.75.75 0 0 1 -.23-.38c-.03-.09-.03-.14-.03-.14zm-5.88-2.51h.1a1 1 0 0 0 .23.11 1.82 1.82 0 0 0 .4.09 1.58 1.58 0 0 0 .54 0h.31a1.13 1.13 0 0 1 .39 0 1.55 1.55 0 0 1 .38.11 1.77 1.77 0 0 0 .37.09h.4a3.39 3.39 0 0 0 .41 0h.42a1.62 1.62 0 0 0 .41-.07.65.65 0 0 0 .33-.14l.13-.13.1-.15.08-.17.07-.18c0-.12.08-.24.12-.35s.06-.24.09-.35v-.35a1.66 1.66 0 0 0 .05-.32v-.32a2.75 2.75 0 0 1 0-.33 2.16 2.16 0 0 1 .07-.3 4.9 4.9 0 0 1 .16-.48c.12-.28.23-.47.28-.57l.14-.28.13-.27a1.81 1.81 0 0 0 .09-.22v-.2a.74.74 0 0 0 0-.29v-.12c0-.01.06 0 .12.08a.61.61 0 0 1 .1.35v.09a1.08 1.08 0 0 1 0 .13 1.53 1.53 0 0 1 -.08.27l-.11.27c0 .1-.09.2-.15.31s-.15.28-.27.54a4.66 4.66 0 0 0 -.16.45 2.08 2.08 0 0 0 -.07.26 2.39 2.39 0 0 0 0 .29v.33a1.72 1.72 0 0 1 -.07.37v.34q0 .18-.1.36c0 .12-.08.24-.13.37l-.08.18-.09.18a1.21 1.21 0 0 1 -.12.18 1.09 1.09 0 0 1 -.11.17.74.74 0 0 1 -.39.17 2 2 0 0 1 -.45.07h-.44a3.72 3.72 0 0 1 -.43 0h-.41a2.11 2.11 0 0 1 -.41-.08 1.61 1.61 0 0 0 -.34-.09.91.91 0 0 0 -.32 0h-.32a1.64 1.64 0 0 1 -.62 0 1.45 1.45 0 0 1 -.5-.07.56.56 0 0 1 -.25-.2c-.03-.07-.02-.12 0-.13z"/><path d="m8.41 12.69 1.17-.31a2.13 2.13 0 0 0 1.11-.54 7 7 0 0 0 .62-1.06 1.09 1.09 0 0 0 .16-.61c0-.21.13-.27.35-.27a.41.41 0 0 0 .29-.11c.08-.1.08-.17.14-.19a.9.9 0 0 0 .48-.29.67.67 0 0 1 .43-.31.41.41 0 0 0 .22-.22.49.49 0 0 1 .18-.18 1.11 1.11 0 0 0 .23-.18 1.69 1.69 0 0 0 .14-.24c.08-.13.29-.16.42-.32a.35.35 0 0 0 -.05-.51.22.22 0 0 0 -.36.18.2.2 0 0 1 .37-.07.32.32 0 0 1 -.14.45 2.74 2.74 0 0 0 -.25.15c-.09.07-.11.16-.17.25s-.3.21-.43.38-.09.18-.17.21-.15.1-.26.1-.27.3-.43.38a2.1 2.1 0 0 0 -.27.11c-.1.07-.1.19-.18.23s-.39 0-.56.17 0 .44-.14.62-.19.37-.29.55a1.85 1.85 0 0 1 -.77.93 7.11 7.11 0 0 1 -1.25.4 4.94 4.94 0 0 0 -.74.22c-.17.08-.07.14.15.08z"/><path d="m8.3 12.6a.59.59 0 0 1 .41-.22l.51-.16a5.63 5.63 0 0 0 1-.46 3.41 3.41 0 0 0 .44-.33 3.15 3.15 0 0 0 .29-.47l.46-1c.11-.3.38-.41.69-.54a3.21 3.21 0 0 0 .8-.58 5.53 5.53 0 0 0 .62-.74 2.46 2.46 0 0 0 .44-.78 6.28 6.28 0 0 1 -1.26 1.57 3 3 0 0 1 -.86.54c-.36.11-.52.48-.65.78a10 10 0 0 1 -.51 1 2.31 2.31 0 0 1 -.86.62 5.47 5.47 0 0 1 -1.06.39c-.2 0-.54.13-.56.42s.04.07.1-.04z"/><path d="m11.94 7.19a3.23 3.23 0 0 0 .26 1 1.6 1.6 0 0 0 .45.75 6 6 0 0 1 -.4-.86 1.63 1.63 0 0 1 -.14-.48v-.26a.22.22 0 0 0 -.11-.18s-.07-.01-.06.03zm-.68 1.01h-.09v.8a1.59 1.59 0 0 0 .13.65c0-.25-.06-.48 0-.72v-.68l-.11.06a.09.09 0 0 0 .07 0s.03-.09 0-.11zm-.01-.13.1-1.15c0-.19 0-.4.06-.56s.08 0 .17 0l.25.12c.3.14 0 .55-.13.84a3.32 3.32 0 0 1 -.25.44c-.08.13-.24.28-.2.43 0-.16.2-.28.3-.43a2.72 2.72 0 0 0 .28-.49 4.22 4.22 0 0 0 .17-.48c.07-.23-.17-.38-.33-.43s-.16-.11-.3-.11-.12.21-.14.28l-.07.6-.07.63a1.15 1.15 0 0 0 0 .37c.07.09.15.05.16-.06zm-4.12-1.53a1.88 1.88 0 0 1 .88 0 3.49 3.49 0 0 1 .89.15 1.92 1.92 0 0 1 .73.53c.1.13.29.17.41.23a.5.5 0 0 1 .25.31c.15.53.61.95.59 1.51a5.42 5.42 0 0 1 -.26 1.56 3.54 3.54 0 0 0 .38-1.76 2 2 0 0 0 -.33-.82c-.18-.24-.19-.54-.39-.8a1.55 1.55 0 0 0 -.43-.24 3.94 3.94 0 0 1 -.34-.32 1.73 1.73 0 0 0 -.87-.43c-.33 0-.66-.09-1-.11a.83.83 0 0 0 -.6.14c-.14.1-.04.11.09.05z"/><path d="m8.91 7.3c.63.13 1 .83 1.42 1.3a2.22 2.22 0 0 1 .4 1.65 1.89 1.89 0 0 0 -.42-1.83c-.22-.27-.42-.56-.66-.82a1.75 1.75 0 0 0 -.44-.35.46.46 0 0 0 -.34-.07c-.08.04-.04.12.04.12zm-.91.96a.59.59 0 0 1 .49-.26 1.12 1.12 0 0 1 .51.25 2.35 2.35 0 0 1 .77.94 4.09 4.09 0 0 1 .23 2.17 3.13 3.13 0 0 0 -.19-2.36 2.38 2.38 0 0 0 -.91-1 .78.78 0 0 0 -.71-.07.62.62 0 0 0 -.31.29c-.05.11.05.13.12.04z"/><path d="m9.83 8.4a2.88 2.88 0 0 1 .45 1.51 8.82 8.82 0 0 1 -.21 1.4 3.42 3.42 0 0 0 .29-1.53 3.21 3.21 0 0 0 -.15-.84 2.74 2.74 0 0 0 -.17-.41.49.49 0 0 0 -.14-.23c-.06-.04-.11.04-.07.1zm-1.83-.51a3.6 3.6 0 0 1 .47-.16.92.92 0 0 1 .44.14c.25.14.47.39.77.46a6.16 6.16 0 0 0 -.8-.58.7.7 0 0 0 -.54-.11l-.27.08a.23.23 0 0 0 -.14.08s.02.1.07.09zm0 1.41a1.08 1.08 0 0 0 -.76.93.8.8 0 0 0 0 .17.17.17 0 0 0 .14.14.7.7 0 0 1 .24.14.64.64 0 0 0 .62.11 2.68 2.68 0 0 0 .51-.19 1 1 0 0 0 .38-.43c.08-.17.15-.33.21-.5a.68.68 0 0 0 .05-.5.93.93 0 0 1 -.15.52c-.08.17-.16.35-.25.51a1.24 1.24 0 0 1 -1 .51c-.21 0-.34-.14-.53-.25s-.17 0-.16-.15a.81.81 0 0 1 0-.28 1 1 0 0 1 .36-.47c.1-.07.21-.11.31-.17s.17-.12.03-.09z"/><path d="m8.75 10.42a1.34 1.34 0 0 1 -.55-.29 4.2 4.2 0 0 1 0-.59.76.76 0 0 0 0 .7 1.4 1.4 0 0 0 .32.21l.18.09a.12.12 0 0 0 .15 0s-.09-.12-.1-.12zm-.38-.9c0-.27.13-.63.32-.74s.5.14.77 0l-.46-.06a.55.55 0 0 0 -.44 0 .94.94 0 0 0 -.26.42 2.45 2.45 0 0 0 -.07.24.18.18 0 0 0 0 .15s.13.03.14-.01z"/><path d="m9.45 9.19a1.27 1.27 0 0 0 -.63 0c-.17 0-.42.12-.41.35a.74.74 0 0 1 .47-.26 1 1 0 0 1 .3 0h.24c.03 0 .06-.08.03-.09zm-2.13.81a.76.76 0 0 1 .12-.46c.07-.14.26-.22.34-.39a1.16 1.16 0 0 1 .73-.45.87.87 0 0 0 -.85.47c-.1.13-.28.23-.37.41a.91.91 0 0 0 -.1.28.21.21 0 0 0 0 .18z"/><path d="m7.16 10.44a.5.5 0 0 1 -.13.19h.09c-.12-.23-.26-.47-.35-.7a.93.93 0 0 1 0-.72l.34-.75a.44.44 0 0 1 .24-.26c.11-.05.26-.11.31-.22-.09.1-.24.11-.38.18a.58.58 0 0 0 -.28.35c-.12.27-.26.53-.36.81a1.11 1.11 0 0 0 .12 1l.22.43v.08l.07-.06a.38.38 0 0 0 .15-.28c.07-.14-.01-.12-.04-.05zm.9 1.1a.81.81 0 0 0 .5.08h.48a1.86 1.86 0 0 0 .77-.1v.06h.05l.13-.09h-1.53a.8.8 0 0 1 -.24 0h-.12c-.05 0-.1.02-.04.05zm.4-.63a2 2 0 0 0 .32.36c.1.09.23.22.41.14a.88.88 0 0 1 -.37-.23 1.34 1.34 0 0 1 -.14-.18l-.07-.1h-.06c-.06 0-.1 0-.09.01z"/><path d="m8 11.12a2.52 2.52 0 0 1 .43.21c.12.07.22.19.41.15l-.4-.25-.22-.14-.06-.09h-.08c-.08 0-.08.11-.08.12z"/><path d="m7 11.1c.1.12.23.15.26.24a.51.51 0 0 0 .26.3 1.57 1.57 0 0 0 .74.18h.65a1 1 0 0 0 .63-.1 2 2 0 0 1 -.69 0 6.27 6.27 0 0 1 -.7 0 1.2 1.2 0 0 1 -.66-.25c-.09 0-.07-.24-.23-.33l-.14-.14s-.12 0-.12.1zm2-.97h.13a.19.19 0 0 0 .03-.13.42.42 0 0 0 -.07-.26.28.28 0 0 0 -.23-.13c-.09 0-.19.09-.15.18 0-.12.26-.09.29 0a.26.26 0 0 1 0 .21.08.08 0 0 0 -.1 0c0 .1.1.13.1.13z"/><path d="m8.91 9.55s.11 0 .15.08 0 .14.21.12a1.29 1.29 0 0 1 -.16-.2.23.23 0 0 0 -.11-.12h-.14a.29.29 0 0 0 .05.12zm-.46.08c0 .1-.15.19-.08.34s.14.15.29.14c-.09-.1-.2-.1-.21-.19a.14.14 0 0 1 0-.12v-.11c0-.05.01-.07 0-.06z"/></g><path d="m11.71 16.63h.75v.59h-.75z" fill="none" transform="matrix(.27328773 -.96193233 .96193233 .27328773 -7.500055 23.93035)"/><path d="m12.36 17h.01zm-.16-.19.01.01v-.01zm-.06.45h.01l-.01-.01zm-.17-.08h.01zm.04.12h.01v-.01h-.01zm-.26-.25v.01zm.06.07h.01v-.01h-.01zm.1-.28v.01h.01v-.01zm.33.05h-.01v.01h.02v-.01zm-.29-.25h.01l-.01-.01zm.23.07h.01l-.01-.01zm-.06-.08.01.01v-.01l-.01-.01zm-.08.05h.01zm-.04.4.01.01v-.02zm.25.08h.01v-.01h-.01z" fill="#231f20"/><circle cx="11.8" cy="16.87" fill="#231f20" transform="matrix(.89 -.45 .45 .89 -6.32 7.11)"/><path d="m12.08 16.93h-.02v.01l.01.01.01-.01zm.17.07h.01zm-.04.03v.01h.01v-.01zm-.17.17v.01h.01v-.01zm-.16-.27h-.01l.01.01zm.38-.34h-.01zm-.14.54v.01h.01v-.01zm-.28-.38h-.01zm-.01.3h.01l-.01-.01z" fill="#231f20"/><path d="m14.96 11.93h4.57v5.84h-4.57z" fill="none" transform="matrix(.74628977 -.6656212 .6656212 .74628977 -5.50997 15.250324)"/><path d="m18 17.67s0-.01 0 0zm-.47-.99a.06.06 0 0 0 .05 0h-.06zm.19-3.6v-.06zm-1.15 1.06a.06.06 0 0 0 -.05 0 .06.06 0 0 0 0 .06.08.08 0 0 0 .07 0 .07.07 0 0 0 0-.05.06.06 0 0 0 -.02-.01zm1.43-.14h.06zm-2.63 1a.06.06 0 0 0 .06 0zm.56.62h.07v-.05h-.07zm1.72-1.91h-.07zm-2.86.82h-.06zm1.38-.53v.06h.05v-.06zm.25-.31h.05-.06a.07.07 0 0 0 .01 0zm-.98-.34h.08a.09.09 0 0 0 -.07 0zm2.67 1.79v-.08a.06.06 0 0 0 -.08 0zm-1.01.86h.06-.08a.09.09 0 0 0 .02 0zm.71-.65a.09.09 0 0 0 .1 0 .08.08 0 0 0 -.08-.08.09.09 0 0 0 -.07 0zm-.54-.44h-.06v.09-.08zm.24-.34a.07.07 0 0 0 0 .05.09.09 0 0 0 .07 0 .08.08 0 0 0 0-.06.07.07 0 0 0 -.08 0zm-.39-.24a.11.11 0 0 0 .08 0 .07.07 0 0 0 0-.07.08.08 0 0 0 -.08 0 .07.07 0 0 0 -.05.06zm-.76 1.87a.07.07 0 0 0 .05 0zm.64-1.06h-.07v.08a.06.06 0 0 0 .08 0zm-.87-.53v.07a.09.09 0 0 0 .1 0 .08.08 0 0 0 0-.05.09.09 0 0 0 -.06 0zm2.6.82h.07z" fill="#231f20"/><path d="m15.04 12.15h5.91v4.63h-5.91z" fill="none" transform="matrix(.58424967 -.81157398 .81157398 .58424967 -4.260009 20.620161)"/><path d="m15.38 15.86s.01 0 0 0zm.87-.72a.06.06 0 0 0 0 .06h.07v-.06zm-.76-.02h-.05zm4.35-.58h.06zm-1.29-.9a.06.06 0 0 0 -.06 0v.06a.09.09 0 0 0 0 .07h.06a.06.06 0 0 0 0-.13zm.45 1.36v.06zm-1.56-2.36a.06.06 0 0 0 0 .07zm-.49.69h.05v-.05zm2.26 1.28h-.06zm.71-.96h.06zm-1.29-.45h-.06v.05h.06zm.37.19a.07.07 0 0 0 .06 0 .07.07 0 0 0 -.06 0zm.08-1.04a.27.27 0 0 1 0 .07.09.09 0 0 0 0-.07zm-1.19 3.03h-.08v.05h.1a.06.06 0 0 0 0-.09zm-.89-.02h.07zm-.22-.79v.09h.05v-.05a.09.09 0 0 0 -.05-.04zm.85.56a.09.09 0 0 0 0 .1.08.08 0 0 0 0-.07.09.09 0 0 0 -.05-.06zm.31-.63h-.09v.05h.07zm.39.16a.09.09 0 0 0 0 .07.08.08 0 0 0 .06 0 .07.07 0 0 0 0-.09zm.15-.44a.11.11 0 0 0 0 .08.07.07 0 0 0 .07 0 .08.08 0 0 0 0-.09.08.08 0 0 0 -.07 0zm-.84.05v-.06h-.07a.06.06 0 0 0 0 .09h.06zm.36-.96h-.08a.09.09 0 0 0 0 .11h.08a.09.09 0 0 0 0-.07.08.08 0 0 0 0-.04zm-.25 2.74h.07v-.05z" fill="#231f20"/><path d="m15.73 11.69h5.85v4.58h-5.85z" fill="none" transform="matrix(.05111586 -.99869273 .99869273 .05111586 3.73961 31.899908)"/><path d="m20.88 14h-.06zm-1.52-1.09h.06zm-1.79 2.57v-.05zm1.1-2.48a.06.06 0 0 0 -.06 0 .08.08 0 0 0 .06 0h.05a.06.06 0 0 0 -.05 0zm1.14.9h-.07zm-2.6-1.14a.06.06 0 0 0 0 .06h-.06zm2.53.69h.05zm-1.24-.86h-.06zm.38-.02a.07.07 0 0 0 .06 0 .07.07 0 0 0 -.06 0zm-.46-.93h.06a.09.09 0 0 0 0-.05zm.64 3.16v.05h.05a.06.06 0 0 0 -.05-.07zm-1.35-.08h.1v-.1a.09.09 0 0 0 -.1.1zm1 .01a.09.09 0 0 0 .05.09h.07a.08.08 0 0 0 0-.11.09.09 0 0 0 -.08 0zm1.58.7v-.09zm-1.66-1.43h-.07v.05a.07.07 0 0 0 .05 0v-.05zm.37 0a.09.09 0 0 0 0 .07h.07a.08.08 0 0 0 0-.06.07.07 0 0 0 0-.07zm.8.55h.07zm-.88-1.03a.11.11 0 0 0 0 .07h.08a.07.07 0 0 0 0-.06.08.08 0 0 0 0-.07.07.07 0 0 0 -.08 0zm-1.86.8a.08.08 0 0 0 .06 0zm1.2-.32v-.05h-.05a.06.06 0 0 0 0 .07zm1.1-2.9h.06zm-1.36 1.9a.09.09 0 0 0 .06.09h.06a.08.08 0 0 0 0-.05.09.09 0 0 0 0-.06z" fill="#231f20"/><path d="m16.96 10.51h4.42v5.64h-4.42z" fill="none" transform="matrix(.15712396 -.98757889 .98757889 .15712396 3.000565 30.159694)"/><path d="m16.86 11.7s.01 0 0 0zm.99.43h.05zm-1.48.99h.05zm3.74.32a.06.06 0 0 0 0-.05h-.11a.08.08 0 0 0 0 .06.07.07 0 0 0 0 .05h.06a.06.06 0 0 0 .05-.06zm-.97 1h.07zm1.35-2.37a.06.06 0 0 0 -.06 0zm-.8-.12h-.06v.05h.06zm-.12 2.47h-.06.09zm1.64-2.36h.05zm-.69 1.27v-.06zm-.02.36a.07.07 0 0 0 0 .06.07.07 0 0 0 0-.06zm.94-.35v.06a.09.09 0 0 0 .06 0zm-3.09.29h-.06a.06.06 0 0 0 .07 0zm.21-1.29h-.06v.1h.11a.08.08 0 0 0 -.05-.1zm-.11.96a.09.09 0 0 0 -.09 0v.06a.08.08 0 0 0 .06 0 .09.09 0 0 0 0-.07zm-.84 1.44h.07zm1.51-1.45h-.12.07zm.03.41a.08.08 0 0 0 -.07 0v.07a.08.08 0 0 0 .05 0 .07.07 0 0 0 .07 0zm-.64.67h.08zm1.07-.74a.11.11 0 0 0 -.07 0v.06a.07.07 0 0 0 .05 0 .08.08 0 0 0 .07 0 .07.07 0 0 0 0-.08zm-.58-1.86h-.06a.07.07 0 0 0 0 .05h.06zm.19 1.17h.05v-.07a.06.06 0 0 0 -.07 0v.05zm.97-.11a.08.08 0 0 0 -.09 0v.06h.06a.07.07 0 0 0 .03-.06zm-2.45.97h-.06z" fill="#231f20"/><path d="m17.31 9.86h4.25v5.42h-4.25z" fill="none" transform="matrix(.53184206 -.84684357 .84684357 .53184206 -1.550209 22.339852)"/><path d="m20.86 14.89s-.01-.01 0 0zm-.71-.76h.05v-.06h-.06zm-.76-3.25v-.05zm-.75 1.24a.06.06 0 0 0 0 .05h.06a.08.08 0 0 0 .06 0 .07.07 0 0 0 0-.05.06.06 0 0 0 -.12 0zm1.24-.52h.05-.06zm-2.09 1.59a.06.06 0 0 0 .06 0zm.66.41h.06zm1.04-2.15h-.08zm-1.26.62v.06zm.16-.32h.05a.07.07 0 0 0 0-.05h-.05a.07.07 0 0 0 0 .05zm-.96-.04h.06-.07zm2.84.91h.06a.06.06 0 0 0 -.08 0zm.04.82h-.06zm-.71.24h.08a.08.08 0 0 0 -.08 0zm.46-.81a.08.08 0 0 0 .09 0v-.06h-.06a.08.08 0 0 0 -.05.05zm1.28-.96h-.07zm-1.87.72h.06v-.06zm.12-.37h.07a.07.07 0 0 0 -.08 0zm.82-.36h-.07zm-1.23.25a.11.11 0 0 0 .07 0 .07.07 0 0 0 0-.06.07.07 0 0 0 -.08 0 .07.07 0 0 0 0 .07zm.09.76h-.07v.07a.06.06 0 0 0 .08 0v-.05zm-.9-.26v.06a.08.08 0 0 0 .1 0v-.05h-.06a.07.07 0 0 0 -.04-.01zm2.53.06h.1z" fill="#231f20"/><path d="m16.85 9.7h5.21v4.08h-5.21z" fill="none" transform="matrix(.86154057 -.50768874 .50768874 .86154057 -3.269907 11.500244)"/><path d="m16.85 11.94s.01 0 0 0zm.96-.27h.06zm2.38-.4h-.09a.08.08 0 0 0 0 .07.05.05 0 0 0 .09-.07zm-.11 1.29h.08zm-.43-2.49a.06.06 0 0 0 0 .05h.06zm.74 2.22h.06zm.91-.53h.05zm-.88-.82h-.05zm.66-.53a.24.24 0 0 1 0 .07.08.08 0 0 0 0-.06zm-2.08 2.03a.06.06 0 0 0 0-.07zm-.67-.33h.07zm.11-.71v.05a.08.08 0 0 0 0-.05zm.48.75a.08.08 0 0 0 0 .08h.08a.07.07 0 0 0 0-.05.08.08 0 0 0 0-.07zm.26 1.52h-.06zm.21-1.92h-.08zm.26.25h-.07a.08.08 0 0 0 0 .05h.08a.06.06 0 0 0 0-.07zm-.06.87h.06zm.34-1.15a.1.1 0 0 0 0 .07.06.06 0 0 0 .07 0 .07.07 0 0 0 0-.07.07.07 0 0 0 0-.06zm-1.51-1a.07.07 0 0 0 0 .05zm.82.73v-.07a.06.06 0 0 0 0 .07zm.62-.65h-.07a.08.08 0 0 0 0 .09h.08a.07.07 0 0 0 -.01-.09zm-1.17 2.14h.06z" fill="#231f20"/><path d="m16.81 8.98h5v3.92h-5z" fill="none" transform="matrix(.21490579 -.97663479 .97663479 .21490579 4.479902 27.45087)"/><path d="m21.18 11.3h-.05zm-1.13-1.17h.05zm-2.3 2.77s0-.01 0 0zm.43-.9h.05zm1.28-1.89v-.05a.05.05 0 0 0 0 .05zm.83.89h-.05zm-2.03-1.3a.05.05 0 0 0 0 .05zm-.14.7h.06-.05zm1.26-.66h-.05zm.32.04a.06.06 0 0 0 .05 0 .06.06 0 0 0 -.05 0zm-.26-.85a.08.08 0 0 0 0-.05zm.1 2.75h.08a.05.05 0 0 0 0-.07zm-1.13-.25h.1v-.1a.07.07 0 0 0 -.1.1zm.84.15a.08.08 0 0 0 0 .08h.06a.07.07 0 0 0 0-.1.08.08 0 0 0 -.06 0zm.03-.58h-.07zm.36 0a.07.07 0 0 0 0 .06h.06a.06.06 0 0 0 0-.07zm-.04-.41a.1.1 0 0 0 0 .06.07.07 0 0 0 0-.07.06.06 0 0 0 -.07 0zm-.6.31h-.1a.05.05 0 0 0 0 .06zm-.08-.9a.08.08 0 0 0 0 .09h.05a.07.07 0 0 0 0-.06zm.73 2.25h.06-.05z" fill="#231f20"/><path d="m17.17 7.87h3.61v4.61h-3.61z" fill="none" transform="matrix(.38848075 -.92145684 .92145684 .38848075 2.229916 23.700109)"/><path d="m17.46 8.43s.01 0 0 0zm1.02-.36v-.07zm1.22 2.38h-.05zm.57-1.02h-.05zm-.61-.25h-.06zm-.58 1.94h.07zm1.69-.49h.05zm-2.51-.38h-.05.06zm.42-.98h-.07v.06h.07a.07.07 0 0 0 0-.06zm-.28.73a.07.07 0 0 0 -.08 0v.05h.05a.07.07 0 0 0 0-.05zm-.94 1h.06zm2.07-2.5h.02l-.03-.03.01.02zm-.59 1.64h-.04.06zm-.06.32h-.08v.05a.06.06 0 0 0 .06 0zm-.63.41h.06zm.99-.37a.09.09 0 0 0 -.06 0 .06.06 0 0 0 .07 0 .06.06 0 0 0 0-.06zm-.09-1.59h.07zm-.08.96v-.04h-.06zm.78.13a.07.07 0 0 0 -.08 0h.05a.06.06 0 0 0 .03 0zm-2.12.26h-.06z" fill="#231f20"/><path d="m16.51 7.81h4.16v3.26h-4.16z" fill="none" transform="matrix(.18772419 -.98222178 .98222178 .18772419 5.830508 25.920379)"/><path d="m17.34 11.1s0-.01 0 0zm.35-2.67h-.05zm-.11.57h.05zm1.31-.54h.05a.05.05 0 0 0 -.05 0zm-.1 1.54h-.05v.06h.06v-.05zm-.94-.14h.09v-.02a.06.06 0 0 0 -.09.02zm.7.14a.06.06 0 0 0 0 .07h.05-.05zm1.05.61v-.06zm-1.04-1.14h-.07v.06zm.3-.01h.05a.05.05 0 0 0 0-.05zm-.04-.32a.08.08 0 0 0 0 .05.06.06 0 0 0 0-.06.05.05 0 0 0 -.06 0zm-.51.27h-.07v.05zm-.07-.72a.06.06 0 0 0 0 .07zm.66 1.83h.1z" fill="#231f20"/><path d="m16.66 7h2.82v3.6h-2.82z" fill="none" transform="matrix(.87138512 -.49059961 .49059961 .87138512 -1.999817 9.999728)"/><path d="m18.17 10.61s0-.01 0 0zm-.42-2.32h.08zm-.84.35h-.05zm.26-.98h-.07zm1.38 1.43h.09zm-.73.41h.07a.05.05 0 0 0 -.07 0zm.52-.32a.06.06 0 0 0 .06 0h-.05zm-1.42.39-.01-.01v.03l.01-.01zm1.15-.72h.08zm-.2.1v.05zm-.44-.44a.05.05 0 0 0 .06 0z" fill="#231f20"/><path d="m16.83 7.9h.93v1.19h-.93z" fill="none" transform="matrix(.96058532 -.27798534 .27798534 .96058532 -1.679885 5.140043)"/><path d="m17.72 8.36.01.01v-.01.01l.01-.01zm-.36-.12h.01zm.28.65h.02l-.01-.01h-.01zm-.14.16h.01v-.01h-.01zm-.41-.07v-.01zm.44-.77v.01h.01v-.01zm-.55.31v.01h.02v-.01zm.42-.43v.01h.01v-.01zm-.53.13.01.01v-.02h-.01zm.44.55h.01l.01-.01h-.02zm.39-.1h.01v-.02h-.01z" fill="#231f20"/><circle cx="16.86" cy="8.65" fill="#231f20" transform="matrix(.51922082 -.85464012 .85464012 .51922082 .709881 18.569896)"/><path d="m17.57 8.46h.01v-.01h-.01zm-.02.07.01.01h.01v-.02h-.02zm-.08.37h.01l-.01-.01zm-.24-1h.02l-.01-.01zm.28.83v.01h.02v-.01zm-.7-.27h-.01v.01h.01z" fill="#231f20"/><path d="m8.62 2.2h5.94v4.66h-5.94z" fill="none" transform="matrix(.68924027 -.72453285 .72453285 .68924027 .31988 9.799798)"/><path d="m8.8 5.56s0-.01 0 0zm.96-.56a.06.06 0 0 0 -.06 0h.07v-.06zm-.03 1.84h.06zm-.91-2.67h-.05zm.18.67h.05zm4.42.02h.06zm-1.17-1.08a.06.06 0 0 0 -.06 0 .09.09 0 0 0 0 .07h.06a.06.06 0 0 0 0-.07zm.28 1.45v.06h.08zm-1.25-2.6a.06.06 0 0 0 0 .07zm-.58.62v.05h.07v-.04zm2.08 1.59h-.05zm.83-.84h.06zm-1.22-.65h-.06v.05h.06zm.3.24a.07.07 0 0 0 .05 0 .07.07 0 0 0 -.05 0zm.31-1.03a.27.27 0 0 1 0 .08.09.09 0 0 0 0-.07zm-1.64 2.86h-.11.1a.06.06 0 0 0 0-.09zm-.89-.14h.07zm-.11-.81v.06h.08v-.06a.09.09 0 0 0 -.08 0zm.77.67a.09.09 0 0 0 0 .1h.05a.08.08 0 0 0 0-.07.09.09 0 0 0 0-.07zm.4-.59h-.09.07zm.36.22h-.05a.09.09 0 0 0 0 .07h.06a.07.07 0 0 0 0-.09zm.21-.42a.12.12 0 0 0 0 .08.07.07 0 0 0 .07 0 .08.08 0 0 0 0-.08.08.08 0 0 0 -.07 0zm-1.96-.62a.08.08 0 0 0 0 .05h.05zm1.13.55v-.1h-.07a.06.06 0 0 0 0 .09h.06zm.47-.91h-.08a.09.09 0 0 0 0 .11h.05a.09.09 0 0 0 0-.07.08.08 0 0 0 .03-.04zm-.61 2.71v.05h.07v-.04z" fill="#231f20"/><path d="m9.43 1.97h5.92v4.64h-5.92z" fill="none" transform="matrix(.81106382 -.58495767 .58495767 .81106382 -.169926 8.059899)"/><path d="m9.46 4.79s.01 0 0 0zm1.06-.41a.06.06 0 0 0 0 .05h.05v-.06zm-.78-.95h-.05zm.06.69h.05zm4.32.88h.06zm-.94-1.32a.06.06 0 0 0 0-.05.06.06 0 0 0 -.06 0 .09.09 0 0 0 0 .07h.05a.06.06 0 0 0 .01-.02zm.01 1.47v.06h.09zm-.75-2.77a.06.06 0 0 0 0 .06h.07zm-.68.5h.07zm1.74 1.94h.07zm.98-.69h.06zm-1.08-.84h-.06v.05h.06zm.25.29h.05a.07.07 0 0 0 -.05 0zm.44-.96a.27.27 0 0 1 0 .08.09.09 0 0 0 0-.07zm-2.09 2.51h-.11a.07.07 0 0 0 0 .05h.11a.06.06 0 0 0 0-.08zm-.85-.3h.08zm.05-.83v.1h.05v-.1a.09.09 0 0 0 -.05 0zm.63.81a.09.09 0 0 0 0 .1h.09a.08.08 0 0 0 0-.06.09.09 0 0 0 0-.07zm.49-.5v-.05h-.09a.07.07 0 0 0 0 .05zm.33.28h-.09a.09.09 0 0 0 0 .06h.09a.07.07 0 0 0 0-.08zm.02.97h.06zm.25-1.34a.12.12 0 0 0 0 .08.07.07 0 0 0 .07 0 .08.08 0 0 0 0-.08.08.08 0 0 0 -.06-.06zm-1.8-.97a.08.08 0 0 0 0 .06h.05zm1 .75v-.11h-.06a.06.06 0 0 0 0 .08zm.63-.81h-.08a.09.09 0 0 0 0 .1h.06a.09.09 0 0 0 0-.06.08.08 0 0 0 .02-.04zm-1.1 2.54h.07z" fill="#231f20"/><path d="m10.24 1.75h5.9v4.63h-5.9z" fill="none" transform="matrix(.04919842 -.99878902 .99878902 .04919842 8.490743 17.039276)"/><path d="m15.44 4.12h-.06zm-1.54-1.12h.1zm-2.14 3.65s0-.01 0 0zm.33-1.08v-.05zm1.11-2.5a.06.06 0 0 0 -.06 0 .09.09 0 0 0 .06 0h.05v.04a.06.06 0 0 0 -.05-.04zm1.16.93h-.07zm-2.63-1.17a.06.06 0 0 0 0 .06h-.06zm2.56.69h.05zm-1.29-.87h-.06zm.42-.02a.07.07 0 0 0 .06 0 .07.07 0 0 0 -.06 0zm-.47-.94h.07a.09.09 0 0 0 0-.05zm.65 3.19v.12h.05a.06.06 0 0 0 -.05-.07zm-1.37-.07h.1v-.1a.09.09 0 0 0 -.1.1zm1.02.01a.09.09 0 0 0 .06.09h.07a.08.08 0 0 0 0-.11.09.09 0 0 0 -.08 0zm-.09-.7h-.07v.08a.07.07 0 0 0 .05 0v-.08zm.42-.12a.07.07 0 0 0 0 .05.09.09 0 0 0 0 .07h.07a.08.08 0 0 0 0-.06.07.07 0 0 0 0-.07zm.77.63h.07zm-.89-1.03a.11.11 0 0 0 0 .07h.06a.07.07 0 0 0 0-.06.08.08 0 0 0 0-.07.08.08 0 0 0 -.08 0zm-1.87.8a.08.08 0 0 0 .06 0zm1.2-.32v-.08h-.05a.06.06 0 0 0 0 .07zm1.1-2.93h.06zm-1.33 1.94a.09.09 0 0 0 .06.09h.06a.09.09 0 0 0 0-.05.09.09 0 0 0 0-.07z" fill="#231f20"/><path d="m11.7.9h4.58v5.85h-4.58z" fill="none" transform="matrix(.98274218 -.18498058 .18498058 .98274218 -.470025 2.649963)"/><path d="m11.81 4.29h.06zm1.75.71h-.06zm-1.09-3.27h-.07.05zm2.31-.73h-.05zm-.57 3.79a.06.06 0 0 0 .06 0 .06.06 0 0 0 0-.05.08.08 0 0 0 -.07 0v.06a.06.06 0 0 0 .01-.01zm-1.32-.61h.07zm2.8.5h.06zm-2.63-.08h-.06zm1.05.65a.07.07 0 0 0 -.05 0 .07.07 0 0 0 .05 0zm.67.8-.08-.05a.09.09 0 0 0 .06 0zm-1.37-2.92v-.13h-.06v.1a.06.06 0 0 0 .07.06zm1.33-.24h-.09v.09a.09.09 0 0 0 .09-.09zm-.97.22a.09.09 0 0 0 -.06-.11.08.08 0 0 0 0 .11.09.09 0 0 0 .08 0zm.23.65h.08a.07.07 0 0 0 -.06 0v.06zm-.38.17a.07.07 0 0 0 0-.05.09.09 0 0 0 0-.06h-.07a.08.08 0 0 0 0 .06.07.07 0 0 0 .06.06zm-.87-.38h-.05zm1.09.79a.11.11 0 0 0 -.06-.06h-.06a.07.07 0 0 0 0 .07.08.08 0 0 0 .06.06.07.07 0 0 0 .08 0zm1.62-1.21a.08.08 0 0 0 -.06 0zm-1.08.58h.05v.03a.06.06 0 0 0 -.06-.06zm-.38 3.08h-.05zm.83-2.17v-.08a.09.09 0 0 0 -.08-.08h-.05a.08.08 0 0 0 0 .06.09.09 0 0 0 0 .06zm1.5-.4h.05zm-.96-2.09h-.06z" fill="#231f20"/><path d="m11.76 1.82h5.69v4.46h-5.69z" fill="none" transform="matrix(.66483932 -.74698639 .74698639 .66483932 1.869985 12.269713)"/><path d="m16.34 3.58a.05.05 0 0 0 0-.05h-.07v.06zm-.03-1.8h-.05zm.96 2.53h-.05zm-4.43-.52h-.06zm1.16 1a.06.06 0 0 0 .06 0v-.02a.08.08 0 0 0 0-.07h-.06a.06.06 0 0 0 0 .09zm-.32-1.38v-.06zm1.32 2.45a.06.06 0 0 0 0-.06zm.5-.62h-.07zm-2.05-1.45h.05zm-.77.85h-.06zm1.19.56h.06v-.05h-.05zm-.3-.2a.07.07 0 0 0 -.05 0 .07.07 0 0 0 .05 0zm-.21 1a.26.26 0 0 1 0-.07.09.09 0 0 0 0 .07zm1.43-2.81h.11v-.06h-.1a.06.06 0 0 0 0 .08zm.86.1h-.07zm.13.78v-.07h-.07v.07a.08.08 0 0 0 .07 0zm-.78-.62a.09.09 0 0 0 0-.1.08.08 0 0 0 0 .06.09.09 0 0 0 0 .06zm-.34.55h.09-.07zm-.36-.17a.08.08 0 0 0 0-.07h-.06a.07.07 0 0 0 0 .08zm-.56-.83h-.06zm.38 1.23a.11.11 0 0 0 0-.08.07.07 0 0 0 -.07 0 .08.08 0 0 0 0 .08.07.07 0 0 0 .06 0zm.8.05v.05h.07a.06.06 0 0 0 0-.08h-.05zm-.43.88h.08a.09.09 0 0 0 0-.1h-.1a.08.08 0 0 0 0 .06.07.07 0 0 0 .02.04z" fill="#231f20"/><path d="m12.84 2.03h4.32v5.51h-4.32z" fill="none" transform="matrix(.80333747 -.59552406 .59552406 .80333747 .09994 9.880633)"/><path d="m14.5 2.07s.01.01 0 0zm.4.93h.05zm-.49 3.41v.05zm1.17-.9a.06.06 0 0 0 .05 0 .06.06 0 0 0 0-.06.08.08 0 0 0 -.07 0 .06.06 0 0 0 .02.06zm-1.36.03h-.05.07zm2.57-.73a.06.06 0 0 0 -.06 0zm-.48-.63h-.07zm-1.78 1.65h-.08.06zm1.42-.12v-.06.05zm-.26.24h.05a.07.07 0 0 0 -.05 0zm.89.4h-.07zm.07-.71h-.05zm-2.43-1.2v.07a.06.06 0 0 0 .08 0zm1.03-.76h-.05v.07h.07a.08.08 0 0 0 -.02-.07zm-.73.59a.08.08 0 0 0 -.09 0 .07.07 0 0 0 .07.08.09.09 0 0 0 .07 0zm.48.45v.08zm-.27.28a.06.06 0 0 0 0-.05.08.08 0 0 0 -.06 0v.05a.07.07 0 0 0 0 .06.07.07 0 0 0 .08 0zm.35.28a.11.11 0 0 0 -.07 0 .07.07 0 0 0 0 .07.07.07 0 0 0 .08 0 .07.07 0 0 0 .06-.05zm.92-1.69a.07.07 0 0 0 -.05 0zm-.72.94h.07v-.03a.06.06 0 0 0 -.08 0zm.72.58v-.11a.08.08 0 0 0 -.1 0 .08.08 0 0 0 0 .05.08.08 0 0 0 .06 0zm-2.34-.99h-.07z" fill="#231f20"/><path d="m13.5 3.09h3.8v4.85h-3.8z" fill="none" transform="matrix(.93137388 -.36406415 .36406415 .93137388 -.950011 5.990158)"/><path d="m15.2 7.94s-.01 0 0 0zm-.12-3.17a.07.07 0 0 0 .06 0 .05.05 0 0 0 -.06 0zm1.16.29h-.06zm-2.09.67h.06zm1.85-.99h.07zm-1.58-.91h.06-.05zm.51 2.57h.07v-.06a.07.07 0 0 0 -.07.06zm.76-.33a.07.07 0 0 0 .07 0 .07.07 0 0 0 0-.08.08.08 0 0 0 -.06 0zm1.44-.01h.05v-.06zm-1.73-.48h-.05.07v.01zm.29-.2a.06.06 0 0 0 0-.05.06.06 0 0 0 -.06 0zm.77.18h-.06zm-1.01-.48a.09.09 0 0 0 .06 0 .06.06 0 0 0 0-.06.07.07 0 0 0 -.06 0 .06.06 0 0 0 -.06 0zm-1.14 1.24h.06zm.79-.65h-.1a.05.05 0 0 0 .06 0zm-.5-.67v.05a.07.07 0 0 0 .07.05zm1.79 1.4h.06-.05z" fill="#231f20"/><path d="m13.84 4.72h3.91v3.07h-3.91z" fill="none" transform="matrix(.32556815 -.94551858 .94551858 .32556815 4.739913 19.159114)"/><path d="m14.41 7.64s0-.01 0 0zm.51-1.91h.08zm.71-.78v.05zm.28 1.9h-.05.06v-.05zm-.91-.29h.09a.06.06 0 0 0 -.09 0zm.69.19a.06.06 0 0 0 0 .07zm-1.34-.87-.01-.02-.02.03.02-.01zm1.42.41h-.08zm.23.03v-.05zm.06-.32a.08.08 0 0 0 0 .05.05.05 0 0 0 0-.06.05.05 0 0 0 -.05 0zm-.52.2v.05zm.03-.68a.06.06 0 0 0 0 .07zm.37 1.79h.06z" fill="#231f20"/><path d="m15.48 6.43h1.42v1.12h-1.42z" fill="none" transform="matrix(.03071296 -.99952825 .99952825 .03071296 8.708963 22.960677)"/><path d="m16.16 6.28v.01l-.01-.01-.01.01h.02zm.4.8v-.01l-.01-.01-.01.01v.01z" fill="#231f20"/><circle cx="16.74" cy="6.97" fill="#231f20" transform="matrix(.75676692 -.65368481 .65368481 .75676692 -.489691 12.639964)"/><path d="m16.04 7.7v-.01h-.02l.01.01zm-.01-1.06v-.01h-.02v.01l.01.01zm.7.57h.02l-.01-.01h-.01z" fill="#231f20"/><path d="m4.38 15.34h6.44v5.05h-6.44z" fill="none" transform="matrix(.51668277 -.85617692 .85617692 .51668277 -11.619821 15.139957)"/><path d="m7.31 20.7h.05zm-2.43-1.1s.01 0 0 0zm.88-.86a.06.06 0 0 0 0 .06h.07v-.07zm-1.18-.62h-.05zm.36.67h.06zm4.67-1.01a.05.05 0 0 0 .06 0zm-1.49-.87a.07.07 0 0 0 -.06 0v.09h-.06.07a.07.07 0 0 0 .05-.09zm.64 1.47a.05.05 0 0 0 0 .06h.05zm-1.93-2.46a.07.07 0 0 0 0 .07zm-.47.8v.07h.07v-.07zm2.57 1.18h.07v-.06h-.07zm-1.79-2.75v-.05zm1.04 1.28h-.07v.06h.06zm.37.17v.06a.08.08 0 0 0 .06 0 .08.08 0 0 0 -.06-.06zm.04-1.14a.29.29 0 0 1 0 .08.1.1 0 0 0 0-.08zm-.8.24v-.05zm-.22 3.16h-.09v.06h.12a.07.07 0 0 0 0-.09zm-.98.06h.07a.05.05 0 0 0 -.07 0zm-.3-.84h.11v-.06a.1.1 0 0 0 -.11.06zm.97.53a.1.1 0 0 0 0 .11.09.09 0 0 0 0-.08.1.1 0 0 0 -.06-.06zm.28-.71h-.1v.06-.06zm.46.1a.1.1 0 0 0 0 .08h.05a.09.09 0 0 0 .06 0 .08.08 0 0 0 0-.09zm.42 1a.05.05 0 0 0 0 .05.05.05 0 0 0 0-.05zm-.32-1.45a.13.13 0 0 0 0 .09.08.08 0 0 0 .07 0 .09.09 0 0 0 0-.09.08.08 0 0 0 -.08 0zm-2.22-.19h-.05.05a.08.08 0 0 0 0-.05zm1.32.31v-.06h-.05a.07.07 0 0 0 0 .09h.05zm.29-1.07h-.07a.1.1 0 0 0 0 .12h.06a.09.09 0 0 0 .05 0 .09.09 0 0 0 0-.08.08.08 0 0 0 -.04-.04zm-.02 3v.07h.07v-.07zm-2.25-1.35v-.05z" fill="#231f20"/><path d="m5.73 14.74h5.32v6.79h-5.32z" fill="none" transform="matrix(.40785245 -.91304785 .91304785 .40785245 -11.589585 18.389715)"/><path d="m6.21 15.52s.01 0 0 0zm1.01.81a.07.07 0 0 0 -.06 0v.05a.05.05 0 0 0 .07 0zm-.15-.86h-.07zm1.66 4.76a.06.06 0 0 0 0 .06zm.72-1.67a.07.07 0 0 0 0-.06.07.07 0 0 0 0-.06h-.07a.1.1 0 0 0 -.07.05.08.08 0 0 0 0 .07.07.07 0 0 0 .14 0zm-1.45.86a.05.05 0 0 0 -.06 0v.05h.06zm2.32-2.34a.07.07 0 0 0 -.08 0zm-.89-.39v.05h.05zm-.92 2.85h-.07.09zm2.65-2.24h.05zm-1.16 1.25v-.07h-.06a.05.05 0 0 0 0 .06zm-.18.45h-.06a.09.09 0 0 0 0 .07h.06a.08.08 0 0 0 0-.07zm1.18-.14-.07.05a.1.1 0 0 0 .08 0zm-.32-.86h.05zm-3.34.23h-.12a.08.08 0 0 0 0 .05v.1a.07.07 0 0 0 .1 0zm-.19-1.02h.07a.06.06 0 0 0 -.07 0zm.85-.42h-.1v.06h.1a.1.1 0 0 0 0-.06zm-.45 1.08a.1.1 0 0 0 -.12 0v.08a.09.09 0 0 0 .13 0 .11.11 0 0 0 .05-.07zm-1.42 1.42h.08zm2.21-1.21v-.08h-.06a.08.08 0 0 0 0 .05v-.05h.06zm-.1.48a.1.1 0 0 0 -.08 0v.05a.09.09 0 0 0 0 .06.08.08 0 0 0 .1 0zm-.95.58h-.05.07a.05.05 0 0 0 -.02 0zm1.48-.52a.13.13 0 0 0 -.09 0 .08.08 0 0 0 0 .07.09.09 0 0 0 .1 0 .09.09 0 0 0 0-.09zm-.08-2.35h-.07a.09.09 0 0 0 0 .05h.1zm-.16 1.42h.07v-.08a.07.07 0 0 0 -.1 0v.07zm1.16.17v-.05a.1.1 0 0 0 -.12 0v.07a.1.1 0 0 0 .08 0 .09.09 0 0 0 .04-.02zm-3.15.37h.05z" fill="#231f20"/><path d="m5.8 15.75h6.76v5.3h-6.76z" fill="none" transform="matrix(.85887052 -.51219277 .51219277 .85887052 -8.130033 7.30016)"/><path d="m12.55 18.13a.06.06 0 0 0 0-.05zm-1.23.36h.05a.07.07 0 0 0 0-.06h-.06a.05.05 0 0 0 0 .06zm.79.37h-.06zm-4.84-1.38a.06.06 0 0 0 -.06 0zm.95 1.52a.07.07 0 0 0 0 .06.07.07 0 0 0 .07 0 .1.1 0 0 0 0-.08.08.08 0 0 0 -.06 0 .07.07 0 0 0 -.01.02zm.13-1.65a.05.05 0 0 0 0-.06h-.1zm.58 3.23a.07.07 0 0 0 0-.07h.07-.1a.06.06 0 0 0 0 .05zm.83-.5h-.03zm-1.76-2.38h-.08zm.27 3.44h-.04zm-.34-1.7h.07v-.06h-.06zm-.26-.34h-.08a.08.08 0 0 0 .08 0zm-.6 1.04a.31.31 0 0 1 0-.09.1.1 0 0 0 0 .08zm.86.18v.05h.05zm1.77-2.83h.12a.08.08 0 0 0 0-.06h-.12a.07.07 0 0 0 0 .09zm.94.43h-.08a.06.06 0 0 0 .08 0zm-.14.92v-.07h-.06v.06a.1.1 0 0 0 .06.01zm-.63-.97h.06a.1.1 0 0 0 0-.11h-.07a.09.09 0 0 0 0 .07.11.11 0 0 0 0 .09zm-.35-1.97a.05.05 0 0 0 .06 0zm-.27 2.49v.06h.07a.08.08 0 0 0 0-.06h-.1zm-.33-.39h.08a.1.1 0 0 0 0-.07v-.05a.09.09 0 0 0 -.07 0 .08.08 0 0 0 0 .09zm-.35-1.09h-.08zm.43.03h-.08zm2.13-.07v-.05zm-2.57 1.57a.13.13 0 0 0 0-.09.08.08 0 0 0 -.09 0 .09.09 0 0 0 0 .09.09.09 0 0 0 .06.07zm1.96 1.28h.06a.09.09 0 0 0 0-.07h-.06zm-1.07-.94v.09h.06a.07.07 0 0 0 0-.09zm-.8.85h.07a.1.1 0 0 0 .05-.11h-.1a.1.1 0 0 0 0 .06.09.09 0 0 0 -.02.05zm1.51-2.78h-.08zm1.41 2.37a.07.07 0 0 0 0-.05z" fill="#231f20"/><path d="m7.45 15.25h5.02v6.4h-5.02z" fill="none" transform="matrix(.58849103 -.80850375 .80850375 .58849103 -10.81018 15.640923)"/><path d="m8.47 15.61s0 .01 0 0zm.77.94a.06.06 0 0 0 -.06 0v.07h.07zm.63 3.9a.05.05 0 0 0 0 .06zm.98-1.45a.07.07 0 0 0 0-.06h-.07a.09.09 0 0 0 -.07 0 .08.08 0 0 0 0 .06.07.07 0 0 0 .14 0zm-1.5.55h-.06v.05h.07zm2.6-1.7a.07.07 0 0 0 -.07 0zm-.75-.53h-.07v.07h.07zm1.48.9h.05zm-1.35.92v-.07h-.06v.06zm-.21.36h-.06a.08.08 0 0 0 0 .06h.06a.08.08 0 0 0 0-.06zm1.13.13h-.08a.1.1 0 0 0 .08 0zm-.16-.81h.05zm-3.09-.49h-.11v.1a.07.07 0 0 0 .09 0zm.85-1.2h-.1v.06h.06a.09.09 0 0 0 .04-.06zm-.61.87a.1.1 0 0 0 -.11 0 .09.09 0 0 0 .11.06.1.1 0 0 0 .06-.06zm-1.58 1.08h.08zm2.26-.7v-.06h-.02zm-.17.43a.07.07 0 0 0 0-.05.1.1 0 0 0 -.08 0 .09.09 0 0 0 0 .06.08.08 0 0 0 .09 0zm-1 .35h.07a.05.05 0 0 0 -.07 0zm1.47-.16a.12.12 0 0 0 -.09 0 .08.08 0 0 0 0 .07.09.09 0 0 0 .09 0 .08.08 0 0 0 0-.08zm.39-2.21h-.06.05zm-.43 1.28v-.07a.07.07 0 0 0 -.09 0v.06zm1.04.38v-.07a.1.1 0 0 0 -.12 0v.06a.09.09 0 0 0 0 .05.09.09 0 0 0 .07 0 .08.08 0 0 0 .05-.04zm-2.98-.28h-.08v.07h.07z" fill="#231f20"/><path d="m7.83 15.85h5.8v4.54h-5.8z" fill="none" transform="matrix(.99284097 -.11944373 .11944373 .99284097 -2.089986 1.409943)"/><path d="m9.09 17.31h-.09zm-.49-.56h.06zm3.1 1.25a.06.06 0 0 0 0-.06h-.06a.08.08 0 0 0 0 .07h.06a.06.06 0 0 0 0-.01zm-.02-1.49a.06.06 0 0 0 -.05 0zm-.24 2.59h.07zm.71-.99a.07.07 0 0 0 0 .06h.06a.07.07 0 0 0 -.06-.06zm.85-.61a.26.26 0 0 1 0 .07.09.09 0 0 0 0-.06zm-3 1.16h-.11a.07.07 0 0 0 0 .05h.11a.06.06 0 0 0 .06-.06zm-.58-.66h.09zm.43-.68v.11h.11a.09.09 0 0 0 -.11-.11zm.15.98a.09.09 0 0 0 -.08.07v.06h.08a.08.08 0 0 0 .06 0 .09.09 0 0 0 0-.08zm.67-.19h-.07a.07.07 0 0 0 0 .05h.09zm.14.39h-.05a.09.09 0 0 0 -.06 0v.07h.06a.07.07 0 0 0 .06-.06zm-.44.84h.08zm.86-1.03a.11.11 0 0 0 -.06.05v.06a.07.07 0 0 0 .07 0 .08.08 0 0 0 .06-.05.07.07 0 0 0 0-.08zm-1.09-1.68a.07.07 0 0 0 0 .06zm.51 1.11v-.05h-.05a.06.06 0 0 0 -.06.06zm.92-.39h-.07a.09.09 0 0 0 -.08.07v.05h.06a.08.08 0 0 0 .06 0 .08.08 0 0 0 .03-.12z" fill="#231f20"/><path d="m9.06 15.83h4.66v3.65h-4.66z" fill="none" transform="matrix(.5 -.8660254 .8660254 .5 -9.600143 18.690065)"/><path d="m9.45 19s.01 0 0 0zm.63-.68h.05zm.73-2.05a.05.05 0 0 0 0 .05zm-.33.58h.05zm1.31-.24h-.05zm.28-.7v.05a.07.07 0 0 0 0-.06zm-.69 2.47h-.08.08v-.07zm-.93-.54h.1v-.06a.07.07 0 0 0 -.1.06zm.71.37a.07.07 0 0 0 0 .08h.05a.06.06 0 0 0 0-.05zm-1.37-1.32-.01-.03-.02.03zm1.56.8h-.07.06zm.32.1a.07.07 0 0 0 0 .06.06.06 0 0 0 0-.07zm.08-.36a.09.09 0 0 0 0 .06.06.06 0 0 0 .05 0 .06.06 0 0 0 0-.07.06.06 0 0 0 -.06 0zm-.65.1v-.07h-.06v.07zm.2-.78h-.06a.07.07 0 0 0 0 .09.07.07 0 0 0 0-.05.06.06 0 0 0 .06-.04zm.03 2.17h.05z" fill="#231f20"/><path d="m10.4 15.82h3v2.35h-3z" fill="none" transform="matrix(.57514804 -.81804935 .81804935 .57514804 -8.849559 16.950238)"/><path d="m11.85 17.45h-.06zm-.14-.12v.05zm-.8-.93v-.01l-.02.02h.01zm.96.6h-.06zm.27-.13h.06zm-.25-.47v.06z" fill="#231f20"/><path d="m12.05 15.88h.7v.89h-.7z" fill="none" transform="matrix(.67828793 -.73479622 .73479622 .67828793 -8.009718 14.359657)"/><path d="m12.63 16.07v-.01.01-.01zm-.28.07v-.01h-.01zm.43.3h.01v-.01h-.01zm-.17.14v-.01zm.15.02h-.01.01v-.01h-.01v.01zm-.41.14v.01h.01v-.01zm.11-.03h-.01zm-.01-.66v-.01zm-.24.41.01.01v-.02zm.24-.32v.01h.01v-.01zm-.14-.12v.01h.01v-.01zm-.29.29h.01l-.01-.01zm.08-.19h.02zm.01.12h.01v-.01h-.01zm.41.25h.01v-.01h-.01zm.21-.22.01.01v-.01h-.01v-.01z" fill="#231f20"/><circle cx="12.19" cy="16.59" fill="#231f20" transform="matrix(.00244346 -.99999701 .99999701 .00244346 -4.439724 28.739414)"/><path d="m12.41 16.34h-.01v.01h.01zm.16-.15v-.01l-.01.01zm.01.06h.01v-.02h-.01zm.09.27h.01v-.01h-.01zm-.38.03h.01v-.01h-.01zm-.16-.59h.01zm.51.43v.01l.01-.01v-.01h-.01zm-.56.1h-.01v.01h.01zm.31.17h.01v-.01h-.01z" fill="#231f20"/><path d="m12.46 15.31h.89v.7h-.89z" fill="none" transform="matrix(.00174533 -.99999848 .99999848 .00174533 -2.769508 28.539654)"/><path d="m12.57 15.67v-.01h-.01v.01-.01.01zm.24.16h-.01zm-.07-.53h-.01l.01.01zm.21.04h.01v-.01h-.01v.01h.01zm-.08-.13v.01-.01l-.01.01h.01zm.38.2v-.01l-.01.01zm-.09-.05-.01-.01v.01zm-.49.45h.01-.01v.01zm.47-.1v-.01h-.01v.01zm-.39.04v-.01h-.02v.01zm-.01.18h.01v-.01h-.01zm.42.02-.01-.01v.01zm-.29-.01-.01.01h.01zm.09.08-.01-.01zm.08-.09h-.01l.01.01zm-.09-.47h-.01v.01h.01zm-.3-.01h-.01v.01z" fill="#231f20"/><circle cx="13.25" cy="15.64" fill="#231f20" transform="matrix(.73751312 -.67533281 .67533281 .73751312 -7.080052 13.050266)"/><path d="m12.7 15.63h-.01v.01h.01zm.03-.05-.01-.01v.01h-.01l.01.01zm.14-.25h-.01v.01h.01zm.28.27v-.01l-.01-.01v.02zm-.33.51v-.01h-.01zm-.02-.67v-.01h-.01v.02zm.45.35h.01v-.01h-.01zm-.09-.35h-.01l.01.01z" fill="#231f20"/><path d="m-.5 11.15h4.7v3.68h-4.7z" fill="none" transform="matrix(.00401425 -.99999194 .99999194 .00401425 -11.139342 14.789852)"/><path d="m2.73 14.87h.06-.05zm-1.93.23s.01-.01 0 0zm-.74-.82h-.06s.08.01.06 0zm1.77-2.08a.07.07 0 0 0 .05 0zm.87.32h.06zm-1.13-1.41h.05zm.64 2.51v.06h.11v-.05zm-1.09 0h.1v-.08a.07.07 0 0 0 -.1.08zm.8-.03a.07.07 0 0 0 0 .07h.08a.06.06 0 0 0 0-.09h-.08zm1.3.5v-.09zm-1.39-1.09h-.08v.06h.08zm.33 0a.07.07 0 0 0 0 .05h.06a.06.06 0 0 0 0-.05zm.63.4h.05zm-.79-.79a.09.09 0 0 0 0 .05.06.06 0 0 0 0-.05.06.06 0 0 0 0-.06.06.06 0 0 0 -.06 0zm-1.41.71h.06zm.94-.32h-.07a.05.05 0 0 0 0 .05zm-.22-.76a.07.07 0 0 0 0 .07.07.07 0 0 0 0-.05zm-1.24.09h-.07z" fill="#231f20"/><path d="m.79 12.06h3.53v2.76h-3.53z" fill="none" transform="matrix(.96 -.27 .27 .96 -3.51 1.18)"/><path d="m4.29 13.77s-.01 0 0 0zm-1.35-.71h.06zm.41.34h-.04zm-.2.45h-.06a.05.05 0 0 0 .06 0zm-.08-1.62h-.07zm-.06 2.48-.01.01h.03l-.01-.01zm-.42-1.26h.07zm-.12-.22h.03zm.17.44h-.05z" fill="#231f20"/><path d="m2.65 13.44h1.19v.93h-1.19z" fill="none" transform="matrix(.31945552 -.94760127 .94760127 .31945552 -10.959888 12.539272)"/><path d="m3.68 14.04h.01zm-.23-.31v.01-.01l.01.01zm-.39.56h-.01l.01.01zm.05.19h.01v-.01h-.01zm-.3-.3v.01-.01h.01l-.01-.01zm.8-.37h-.01l.01.01.01-.01zm-.63-.06v.01h.01v-.02zm.59-.12h-.01v.01h.02v-.01zm-.51-.19h.01v-.01h-.01zm.05.69v.01l.01.01v-.01h.01v-.01z" fill="#231f20"/><circle cx="2.81" cy="13.79" fill="#231f20" transform="matrix(.91390005 -.40593927 .40593927 .91390005 -5.359763 2.330086)"/><path d="m3.5 14.03v.01l.01-.01v-.01zm-.06.05v.01h.02v-.02h-.01zm-.28.25v.01h.01v-.01zm.38-.95h.01zm-.24.84-.01.01.01.01h.01v-.02zm-.43-.62h-.01l.01.01z" fill="#231f20"/><path d="m3.35 13.9h1.19v.93h-1.19z" fill="none" transform="matrix(.87461971 -.48480962 .48480962 .87461971 -6.4701 3.719981)"/><path d="m3.72 13.97v-.01h-.01zm-.03.39v-.01h-.01v.01zm.56-.43h.01-.01v-.01.02zm.1.28h.01v-.01h-.01zm.09-.18v-.01l-.01.01.01.01zm.02.43v-.01h-.01zm-.84-.27h.01l-.01-.01-.01.01zm.42.47h.01v-.02h-.01l-.01.01zm-.3-.43h.01v-.01l-.01-.01-.01.01v.01zm-.21.12h.01v-.01h-.02zm.24.49.01-.01h-.01zm-.05-.15v-.01h-.01v.01zm.49-.4v-.02h-.01l-.01.01.01.01zm-.19-.37h.01l-.01-.01-.01.01v.01h.01z" fill="#231f20"/><circle cx="4.2" cy="14.75" fill="#231f20" transform="matrix(.31598024 -.94876577 .94876577 .31598024 -11.119934 14.070158)"/><path d="m3.85 14.1v-.01h-.01l-.01.01zm.07 0h.01l-.01-.01h-.01v.01zm.38 0v-.01l-.01.01zm-.92.45v-.01h-.01v.01zm.75-.46h.01v-.01h-.02v.01zm-.11.75v.01h.01v-.01zm.34-.32h.01l-.01-.01z" fill="#231f20"/><path d="m3.27 4.18h4v5.1h-4z" fill="none" transform="matrix(.83961986 -.54317445 .54317445 .83961986 -2.81943 3.919173)"/><path d="m5.55 9.27s0-.01 0 0zm-.77-3.27a.05.05 0 0 0 0 .05.07.07 0 0 0 .06 0v-.05a.05.05 0 0 0 -.06 0zm-1.16.6a.06.06 0 0 0 .05 0zm.38.61h.06zm1.77-1.41h.07zm-1.32.02v.05zm-.54-.63h.09-.07zm2.09 1.91a.05.05 0 0 0 -.07 0zm-1 .64v-.06a.08.08 0 0 0 0 .06zm.68-.5a.08.08 0 0 0 .08 0 .07.07 0 0 0 -.06-.08.08.08 0 0 0 -.06 0zm-.4-.45h-.06v.01zm.25-.27a.08.08 0 0 0 .05 0 .07.07 0 0 0 0-.05.06.06 0 0 0 -.07 0zm-.31-.25a.1.1 0 0 0 .07 0 .06.06 0 0 0 0-.06.07.07 0 0 0 -.07 0 .07.07 0 0 0 -.05 0zm-.22.68h-.09v.05a.05.05 0 0 0 .09 0zm-.67-.59v.06a.08.08 0 0 0 .09 0 .07.07 0 0 0 0-.05.07.07 0 0 0 -.05 0zm2.13 1.07h.06-.05z" fill="#231f20"/><path d="m3.78 3.57h3.82v4.87h-3.82z" fill="none" transform="matrix(.72441254 -.68936672 .68936672 .72441254 -2.569763 5.579881)"/><path d="m6.42 8.34s0-.01 0 0zm-1.32-2.9v.05a.07.07 0 0 0 .06 0 .05.05 0 0 0 -.06-.05zm-.98.74a.05.05 0 0 0 .05 0zm.49.5h.06zm.15-1.38v.05zm.24-.24a.06.06 0 0 0 0-.06.06.06 0 0 0 0 .06zm-.86-.25h.06-.05zm2.27 1.42h.05v-.02a.05.05 0 0 0 -.07 0zm-.82.77v-.07h.01a.07.07 0 0 0 -.01.07zm.58-.59a.07.07 0 0 0 .08 0h-.05a.08.08 0 0 0 -.06 0zm1.33-.56h-.03zm-1.79.21h.05v.02zm.19-.29h.1a.06.06 0 0 0 -.07 0zm-.33-.19a.09.09 0 0 0 .07 0 .06.06 0 0 0 0-.06.07.07 0 0 0 -.07 0 .06.06 0 0 0 0 .05zm-.1.68h-.09v.04a.05.05 0 0 0 .07 0zm-.72-.43v.06a.07.07 0 0 0 .09 0h-.05zm2.19.62h.06z" fill="#231f20"/><path d="m3.79 3.47h4.65v3.64h-4.65z" fill="none" transform="matrix(.82204467 -.56942301 .56942301 .82204467 -1.920029 4.420273)"/><path d="m5.07 3.86h-.07zm.42 1.9h.08a.07.07 0 0 0 0-.06zm.01-1.16h-.02zm1.09 1.81h-.03zm-1.34-1.55h-.04zm-.5 1.71a.21.21 0 0 1 0-.06.07.07 0 0 0 0 .06zm1.68-1.93h.09-.1v.07zm.66.25h-.09zm-.09.64v-.03a.07.07 0 0 0 0 .03zm-.44-.64a.07.07 0 0 0 0-.08h-.02a.07.07 0 0 0 0 .06zm-.33-1.33h.05zm-.07 1.72h.07-.05zm-.24-.23h.08a.07.07 0 0 0 0-.05h-.07a.06.06 0 0 0 0 .06zm-.3-.76h-.05zm.29 0h-.05zm-.22 1.05a.09.09 0 0 0 0-.06.06.06 0 0 0 -.06 0 .06.06 0 0 0 0 .06zm.63.19h.07v-.06zm-.51.62h.06a.07.07 0 0 0 0-.08h-.05a.06.06 0 0 0 -.01.08zm.9-1.97h-.02z" fill="#231f20"/><path d="m5.18 2.76h3.28v4.19h-3.28z" fill="none" transform="matrix(.78671959 -.61731053 .61731053 .78671959 -1.540147 5.250259)"/><path d="m6.38 2.8s.01.01 0 0zm-.32.75h-.06zm1.21 1.85a.06.06 0 0 0 -.05 0zm-1.03.05h.05zm1.93-.61h.06zm-.37-.47h-.05zm-1.58.24v.05h.06zm.78-.61v.05a.06.06 0 0 0 0-.05zm-.56.48a.06.06 0 0 0 -.07 0h.05zm-1.19.36h.06zm1.37.16a.05.05 0 0 0 .06 0zm.27.23a.08.08 0 0 0 -.06 0 .05.05 0 0 0 0 .05.06.06 0 0 0 .06 0zm.11-.57h.1v-.02h-.06zm.61.42v-.08a.06.06 0 0 0 -.07 0zm-1.82-.7h-.06.05z" fill="#231f20"/><path d="m5.78 3.07h3.54v2.77h-3.54z" fill="none" transform="matrix(.50377398 -.86383551 .86383551 .50377398 -.099785 8.730292)"/><path d="m6.07 5.44s.01-.01 0 0zm1.47-.44h-.06.07v-.05zm-.54 0h.05zm-.16-.41h.08a.05.05 0 0 0 -.08 0zm.53.28a.05.05 0 0 0 0 .06zm-1.04-1.01v-.01l-.02.02h.02zm1.19.62h-.07zm.24.07v-.05zm.06-.27v-.05zm-.49.08v-.07h-.04v.05zm.15-.6a.05.05 0 0 0 0 .07z" fill="#231f20"/><path d="m7.57 3.14h1.44v1.84h-1.44z" fill="none" transform="matrix(.89733541 -.44134924 .44134924 .89733541 -.940255 4.069897)"/><path d="m7.81 3.27h.01-.02v.01l.01.01v-.01h.01zm.94.66v-.01h-.02l-.01.01v.01h.02z" fill="#231f20"/><circle cx="8.9" cy="3.7" fill="#231f20" r=".01" transform="matrix(.36227537 -.93207111 .93207111 .36227537 2.219826 10.650403)"/><path d="m8.53 4.95h-.01v.01h.01zm-.65-1.19.01-.01h-.01v-.01h-.02v.02l.01.01h.01z" fill="#231f20"/><g opacity=".5"><path d="m9.93 10.98h2.63v3.36h-2.63z" fill="none" transform="matrix(.95574168 -.29420714 .29420714 .95574168 -3.229787 3.869995)"/><path d="m11 14.32s0-.01 0 0zm.06-2.2h.07zm-.4-.68h.05zm.96 1.56h.08zm-.2.05h-.05zm-1.37.08-.01-.01v.02zm1.19-.44h-.06.05z" fill="#231f20"/><path d="m10.44 10.91h2.73v3.48h-2.73z" fill="none" transform="matrix(.90660261 -.42198544 .42198544 .90660261 -4.230025 6.16002)"/><path d="m11.84 10.9s0 .01 0 0zm.23 2.27h-.07zm-.71-.84h-.06zm.74-.33h-.1a.05.05 0 0 0 .1 0zm-.53.27a.05.05 0 0 0 -.05 0zm1.39-.28.02.01-.01-.03zm-1.16.62h.05-.07zm.2-.09h.06zm.4.48a.05.05 0 0 0 -.06 0z" fill="#231f20"/><path d="m10.65 11.29h3.39v2.65h-3.39z" fill="none" transform="matrix(.3488992 -.93716026 .93716026 .3488992 -3.779751 19.779624)"/><path d="m12.19 13.41h.05zm.07-1.32h.06-.07zm.74.28h-.08a.05.05 0 0 0 .08 0zm-.55-.18a.05.05 0 0 0 0-.06zm1.14.78.01.01.01-.02-.01.01zm-1.22-.39h.07zm-.25.24h.06zm.45-.15h.06zm-.05.58a.05.05 0 0 0 0-.06z" fill="#231f20"/><path d="m11.37 10.51h2.58v3.29h-2.58z" fill="none" transform="matrix(.94264149 -.33380686 .33380686 .94264149 -3.330111 4.919896)"/><path d="m12.85 10.51s0 .01 0 0zm.02 2.16h-.07zm.42.65h-.05zm-1.01-1.5h-.08zm.72-.26h-.07zm-.53.21h.05zm1.34-.13.01.01v-.02zm-1.15.48h.05zm.2-.06h.06z" fill="#231f20"/><path d="m11.23 10.4h3.09v2.42h-3.09z" fill="none" transform="matrix(.65513649 -.75551054 .75551054 .65513649 -4.3701 13.660193)"/><path d="m12.68 12.08h-.07zm-.13-.14v.05h.06zm-.72-1.03v-.02l-.02.02zm.91.72h-.07zm.2.1h.06zm.06-.22h.06zm-.4-.02h-.05zm.23-.49v.06z" fill="#231f20"/><path d="m11.75 9.64h2.23v2.84h-2.23z" fill="none" transform="matrix(.64532437 -.76390867 .76390867 .64532437 -3.889693 13.750288)"/><path d="m12.29 9.76s.01 0 0 0zm.95 1.6h-.04.05zm.26-1.18h.02l-.02-.02zm-.74 1.03h-.06zm.24.09h-.07zm.42-.2h-.05z" fill="#231f20"/><path d="m11.66 9.49h2.59v2.03h-2.59z" fill="none" transform="matrix(.93358043 -.35836795 .35836795 .93358043 -2.909831 5.339957)"/><path d="m13.21 10.2h.06-.05zm.17 1.21v.01h.02l-.01-.01z" fill="#231f20"/><path d="m12.27 8.97h1.55v1.98h-1.55z" fill="none" transform="matrix(.86304311 -.50513026 .50513026 .86304311 -3.240128 7.94962)"/><g fill="#231f20"><path d="m13.54 9.8v-.01l-.01-.01h-.02v.02l.01.01h.01v-.01z"/><circle cx="13.68" cy="9.53" r=".01" transform="matrix(.2938735 -.95584432 .95584432 .2938735 .549865 19.810322)"/><path d="m13.38 10.91v-.01l-.01.01zm-.78-1.24v-.01h-.03v.02h.02z"/></g><path d="m12.9 9.11h.47v.6h-.47z" fill="none" transform="matrix(.20774097 -.97818387 .97818387 .20774097 1.200076 20.309706)"/><path d="m13.1 9.63v.01h-.01.01-.01.01zm.14-.13h-.01v.01zm-.36-.03v.01zm.13-.19h-.01zm-.07.06h-.01zm-.1.04h.01zm.18-.22v-.01zm-.04.05h-.01zm.23.38v-.01l-.01.01zm.03-.16v-.01h-.01l-.01.01zm-.11.1h-.01v.01h.01zm.16-.24h-.01zm-.09-.02h-.01l.01.01zm-.02.26h-.01v.01h.01zm.11.03v-.01zm-.01-.14v-.01h-.01zm0 .04h-.01l.01.01zm.1-.03h-.01zm-.05-.07v.01h.01v-.01zm-.31 0h-.01zm-.05.19h-.01v.01h.01z" fill="#231f20"/><circle cx="13.17" cy="9.18" fill="#231f20" transform="matrix(.86083086 -.50889118 .50889118 .86083086 -2.839781 7.979948)"/><path d="m13.13 9.41.01-.01h-.02.01zm-.04.13v.01zm-.03-.02v.01h.01v-.01zm-.14-.13v.01zm.26.06h-.01v.01h.01zm-.05-.2v-.01h-.01v.01zm.29.28h-.01.01-.01zm-.44-.08-.01.01h.01zm.29-.24v-.01zm-.24.01h.01z" fill="#231f20"/></g><g opacity=".5"><path d="m3.42 9.07h4.51v3.53h-4.51z" fill="none" transform="matrix(.94975377 -.31299805 .31299805 .94975377 -3.110143 2.320033)"/><path d="m4.23 12.22v.05zm-.15-1.1h-.08zm2.31-.54a.07.07 0 0 0 0 .06zm-.33 1.06h-.06zm-.52-1.97h.05zm.82 1.8h.06zm.94-1.47a.21.21 0 0 1 0 .06zm-2.1 1.36h-.1.09v-.06zm-.54-.42h.04zm.22-.58v.06h.12a.07.07 0 0 0 -.12-.06zm.27.72a.07.07 0 0 0 0 .06h.06a.07.07 0 0 0 0-.06zm.48-.25h-.07.08zm.16.28h-.06v.05a.06.06 0 0 0 0-.05zm-.2.71h.06zm.49-.92a.09.09 0 0 0 -.08.1.05.05 0 0 0 .06 0 .06.06 0 0 0 0-.05.06.06 0 0 0 0-.06zm-.53-.34h.05v-.06.05zm.64-.44h-.05a.07.07 0 0 0 -.05.07h.07a.06.06 0 0 0 .03-.07zm-1.38 1.59h.05z" fill="#231f20"/><path d="m3.43 9.64h4.48v3.51h-4.48z" fill="none" transform="matrix(.67016758 -.74220982 .74220982 .67016758 -6.590382 7.969904)"/><path d="m3.59 12.23s0-.01 0 0zm.71-.47h.05zm2.76-.15h-.06zm-.9-.79a.07.07 0 0 0 0 .05zm.24 1.08h.06zm-1-1.9h.06zm1.26-.11a.2.2 0 0 1 0 .06.07.07 0 0 0 0-.06zm-1.14 2.18h-.09.1v-.07zm-.68-.07h.06zm-.09-.62h.06v-.06a.07.07 0 0 0 -.06.06zm.59.49a.07.07 0 0 0 0 .08.06.06 0 0 0 0-.05zm.6 1.13h.06zm-.31-1.58h-.09.06zm.28.15a.07.07 0 0 0 0 .05.06.06 0 0 0 0-.06zm.14-.32h-.05a.09.09 0 0 0 0 .06.05.05 0 0 0 .05 0 .06.06 0 0 0 0-.06.06.06 0 0 0 -.05 0zm-.63-.04v-.07h-.03v.06zm.35-.69h-.07a.07.07 0 0 0 0 .08.07.07 0 0 0 0-.05.06.06 0 0 0 .07-.03zm-.42 2.05h.05z" fill="#231f20"/><path d="m3.92 9.73h3.49v4.45h-3.49z" fill="none" transform="matrix(.73526958 -.67777478 .67777478 .73526958 -6.600357 6.999469)"/><path d="m5.43 10.56h-.06zm.76 1.93a.06.06 0 0 0 -.05 0h.06zm-1.09.14h-.1zm2-.81h-.1zm-.44-.47h-.05.06zm-1.28 1.48h-.07.06zm1.69.24h-.07.06zm-2.07-1.33v.06h.06zm.77-.74v.06h.06a.07.07 0 0 0 -.06-.06zm-.54.58a.07.07 0 0 0 -.08 0 .07.07 0 0 0 .05 0zm.42.33v.05zm-.18.26a.05.05 0 0 0 .06 0zm.3.18a.09.09 0 0 0 -.06 0 .05.05 0 0 0 0 .06.06.06 0 0 0 .06 0zm.1-.62h.06v-.06h-.06zm.65.4v-.05a.07.07 0 0 0 -.08 0zm-1.99-.6h-.06z" fill="#231f20"/><path d="m3.99 10.32h3.41v4.36h-3.41z" fill="none" transform="matrix(.87206927 -.48938245 .48938245 .87206927 -5.389777 4.390105)"/><path d="m5.82 14.68s0-.01 0 0zm-.5-2.81a.06.06 0 0 0 .05 0zm-.71.97h.05-.04zm1.56-1.11h.06-.05zm-1.12-.05h-.05zm-.43-.56h.06-.04zm1.66 1.73h.06v-.06h-.06zm-.88.49h.07v-.04h-.04a.06.06 0 0 0 -.03.04zm.6-.34a.07.07 0 0 0 .07 0h-.06zm-.29-.45h.06v-.05zm.23-.21h.06a.05.05 0 0 0 -.06 0zm-.25-.24a.08.08 0 0 0 .05 0 .05.05 0 0 0 0-.06.06.06 0 0 0 -.06 0zm-.23.57h-.07v.06h.06zm-.54-.53a.07.07 0 0 0 .07 0h.01zm1.77 1.02h.05z" fill="#231f20"/><path d="m4.35 10.88h3.28v4.19h-3.28z" fill="none" transform="matrix(.98880852 -.14919019 .14919019 .98880852 -1.86997 1.040004)"/><path d="m7.09 13h.05zm-.6 1.59h-.05zm-.9-2.13h-.06zm.47-.46h-.06zm.49.32h-.1v.07a.06.06 0 0 0 .1-.07zm-.7.13a.06.06 0 0 0 -.05-.05.06.06 0 0 0 0 .08h.07zm.15.48h.06v-.06h-.06v.05zm-.27.07h-.05zm.14.34a.05.05 0 0 0 .06 0zm1.19-.83h-.06zm-.79.39h.08zm.3.66a.06.06 0 0 0 -.05-.06zm-1.24-1.56h-.05.06z" fill="#231f20"/><path d="m4.27 11.87h4.02v3.15h-4.02z" fill="none" transform="matrix(.87655881 -.48129477 .48129477 .87655881 -5.699907 4.680174)"/><path d="m7.06 14.77h-.06zm-2.79-1.23s.01 0 0 0zm2.6-.44h-.08a.06.06 0 0 0 0 .05zm.7-.64a.18.18 0 0 1 0 .05zm-1.57 1.54h-.13zm-.59-.3h.06zm.1-.54h.08v-.05a.06.06 0 0 0 -.08.05zm.36.59a.06.06 0 0 0 0 .06h.06a.06.06 0 0 0 0-.05zm.37-.3h-.07.06zm.19.22h-.05.07v-.05zm-.06.65h.05zm.28-.88h.07a.05.05 0 0 0 0-.05zm-.52-.22h-.01v.05zm.49-.49h-.05a.06.06 0 0 0 0 .07h.03a.05.05 0 0 0 .02-.07z" fill="#231f20"/><path d="m4.69 12.44h3.79v2.97h-3.79z" fill="none" transform="matrix(.91361643 -.40657719 .40657719 .91361643 -5.089819 3.880004)"/><path d="m6 14.2h.07zm.93-.75h.07-.06zm.49.3h-.04zm-.14.5h-.07a.06.06 0 0 0 .07 0zm-.28-.58a.06.06 0 0 0 0-.06.06.06 0 0 0 0 .05zm-.38.25h.08zm-.16-.22h.05-.03zm-.23.2h-.01zm.48.25h-.06zm-.5.42h.05a.06.06 0 0 0 0-.06h-.03z" fill="#231f20"/><path d="m5.63 12.44h2.75v3.51h-2.75z" fill="none" transform="matrix(.49485213 -.8689772 .8689772 .49485213 -8.7897 13.259578)"/><path d="m7.53 14.47h.07zm.52-.72h-.05zm-1.59.44h.05zm.4-.71h-.05.08a.05.05 0 0 0 -.03 0zm-.27.52a.05.05 0 0 0 -.06 0zm-.8.68h.06zm1.79-1.7h.01l-.01-.02zm-.67 1.42h-.08.05zm.27.06h-.09.05zm.08-1.21h.05zm-.16.75h.01zm.59.12a.05.05 0 0 0 -.06 0zm-1.64.03h-.05z" fill="#231f20"/><path d="m6.29 12.65h2.54v3.24h-2.54z" fill="none" transform="matrix(.94799085 -.31829756 .31829756 .94799085 -4.149982 3.149981)"/><path d="m7.77 12.66s0 .01 0 0zm.3.29h-.07zm-.32 1.83h-.02zm.17.22h.08zm.23.43h-.05zm-.97-1.49h-.05zm.72-.24h-.08zm-.52.2h.05zm1.32-.11.01.01v-.03l-.01.01zm-1.14.45h.05zm.2-.06h.06zm.31.46h-.07z" fill="#231f20"/><path d="m6.65 13.21h2.92v2.29h-2.92z" fill="none" transform="matrix(.0603517 -.99817718 .99817718 .0603517 -6.710106 21.579934)"/><path d="m7.91 13.94h.09-.13zm.68.06h-.08zm-.5 0h-.09zm1.13.33.01.02.01-.03-.01.01zm-1.1-.01h.06zm.19.02h.06z" fill="#231f20"/><path d="m7.46 13.49h2.4v1.88h-2.4z" fill="none" transform="matrix(.33923052 -.94070328 .94070328 .33923052 -7.850203 17.680072)"/><path d="m8.05 14.89h-.05zm-.28-.71v-.01l-.01.02h.01z" fill="#231f20"/><path d="m8.51 13.34h1.22v1.56h-1.22z" fill="none" transform="matrix(.88909704 -.45771875 .45771875 .88909704 -5.450181 5.740012)"/><g fill="#231f20"><path d="m9.13 14.9s0-.01 0 0zm.4-.13v.01l.01-.01v-.01h-.01zm-.81-.54.01.01h.01l.01-.01v-.01h-.02z"/><circle cx="8.6" cy="14.43" r=".01" transform="matrix(.34497058 -.9386135 .9386135 .34497058 -7.900244 17.519478)"/><path d="m8.89 13.36v.01l.01-.01v.01-.01h.01zm.57 1v.01l.01.01h.01v-.02zm-.97-.16v-.01l-.01.01v.01z"/></g><path d="m9.29 13.44h.56v.71h-.56z" fill="none" transform="matrix(.74652207 -.66536066 .66536066 .74652207 -6.74992 9.869964)"/><path d="m9.77 13.61h.01zm-.23.03h.01-.01.01zm.32.28h.01v-.01h-.01zm-.19.22h.01v-.01h-.01zm-.06-.12v.01h.01v-.01zm.1-.01.01.01v-.01zm.12.03h.01zm-.33.08v.01h.01v-.01zm.08-.01h.01v-.01zm-.09-.4h-.01v.01h.02v-.01zm-.15.1.01.01v-.01zm.07.08h.01v-.01h-.01zm.21-.23h.01v-.01h-.01zm-.09-.11v-.01zm-.26.21h.01v-.01h-.01zm.18-.15v-.01h-.01v.01zm-.01.08-.01.01h.02zm-.09-.08h.01zm0 .1.01-.01h-.01zm.3.23h.01v-.01h-.01zm.19-.16h.01l-.01-.01z" fill="#231f20"/><circle cx="9.38" cy="13.99" fill="#231f20" transform="matrix(.09949342 -.99503822 .99503822 .09949342 -5.48042 21.930267)"/><path d="m9.57 13.8v.02l.01-.01v-.01zm.14-.1h.01v-.01h-.01zm.01.05h.01v-.01h-.01zm.05.22h.01v-.01h-.01zm-.21-.24v.01h.01v-.02h-.01zm-.1.23v.01h.01v-.01zm-.07-.48v.01zm.36.39h.01v-.01h-.01zm-.45.03v.01zm.24.16v-.01z" fill="#231f20"/></g><g opacity=".5"><path d="m7.35 5.18h2.9v3.7h-2.9z" fill="none" transform="matrix(.95594684 -.29353983 .29353983 .95594684 -1.679968 2.88985)"/><path d="m8.15 5.69h.06zm-.2.43h.05zm1.27 1.31h.09zm-.82.25h.08a.05.05 0 0 0 -.08 0zm.6-.21a.06.06 0 0 0 .05 0zm-.2-.4h-.06.07zm.2-.13v.06zm-1.07.64h.07zm.64-.45h-.07zm-.35-.53a.06.06 0 0 0 .05 0z" fill="#231f20"/><path d="m6.82 5.27h2.85v3.64h-2.85z" fill="none" transform="matrix(.39634685 -.91810085 .91810085 .39634685 -1.529775 11.849353)"/><path d="m9.27 6.51h-.05zm-.94 1.33h.05zm-.64-.69h.05zm.11-.15a.06.06 0 0 0 -.06 0zm-.75.73h-.05.06zm1.65-1.95.02-.01-.03-.02.01.02zm-.48 1.28v-.06zm-.05.26h-.08.05zm.29.03h-.09.05zm-.14-.49h.03zm.63.08a.05.05 0 0 0 -.07 0z" fill="#231f20"/><path d="m6.14 5.99h3.24v2.54h-3.24z" fill="none" transform="matrix(.83790929 -.54580951 .54580951 .83790929 -2.710092 5.410282)"/><path d="m7.06 6.25h-.06zm2.31.82s-.01 0 0 0zm-1.3.98h-.07v-.05zm-.07-1.23h.08zm.4.63h-.07zm-.33-.45v-.05zm-.2-.94v-.06zm.64 2.19-.01.01.03-.01zm-.72-.99h.07zm-.17-.16h.01zm-.16.19h-.02zm.43.15h.05zm-.36.42v-.06h.01zm.52.68h-.05z" fill="#231f20"/><path d="m6.11 6.68h2.58v2.02h-2.58z" fill="none" transform="matrix(.51069298 -.85976315 .85976315 .51069298 -2.98998 10.130296)"/><path d="m7.9 8.15.01-.01v-.02l-.01-.01-.02.01v.03zm-.49-.86h-.02zm.51.31h-.05zm-.86-.81h-.06zm1.23 1.34v.01l.01-.01zm-.87-.45h.05zm.03-.68.01-.01v-.02l-.01-.01h-.02l-.01.01v.02h.01v.01z" fill="#231f20"/><path d="m6.81 7.83h.47v.6h-.47z" fill="none" transform="matrix(.97 -.22 .22 .97 -1.64 1.78)"/><g fill="#231f20"><path d="m7.21 8.33h.01zm-.23-.03v.01h.01v-.01zm.09.04h-.01zm.07.07v-.01zm-.28-.07h.01zm.07.02v-.01zm.25-.37h-.01zm-.16.04h-.01v.01h.02v-.01zm.14.05v.01h.01v-.01zm-.29-.04v.01h.01v-.01zm.02.09h.01zm.25-.09v.01h.01v-.01zm-.03-.12v.01h.01v-.01zm-.27.05.01.01v-.01zm.19-.03.01-.01h-.01zm-.04.05v.01h.01v-.01zm-.03-.09h.01zm-.04.07h.01l-.01-.01zm.13.29h.01-.01.01-.01v-.01zm.2-.04v-.01z"/><circle cx="6.83" cy="8.19" transform="matrix(.56683767 -.82382951 .82382951 .56683767 -3.790831 9.170236)"/><path d="m7.05 8.13h-.01v.01h.01zm.13.02v-.01zm-.06.18h.01zm-.06-.26.01.01.01-.01zm-.16.13v.01h.01v-.01zm.25.05.01.01v-.01zm-.34-.16h-.01v.01h.01zm.1.21h.01z"/></g></g><g opacity=".5"><path d="m9.99 5.73h3.47v4.43h-3.47z" fill="none" transform="matrix(.35999681 -.93295353 .93295353 .35999681 .089617 16.030637)"/><path d="m10.22 6.32s.01 0 0 0zm2.13.68h-.06zm-.49 1.86h.07zm1.61-.53h.05zm-2.47-.33h.06zm.42-.91h-.06v.06h.07a.07.07 0 0 0 -.01-.06zm-.25.72a.07.07 0 0 0 -.08 0h.05a.07.07 0 0 0 0-.05zm-.87.97h.06zm1.92-2.46h.01l-.02-.02v.02zm-.53 1.59h.06zm-.04.32h-.05v.05a.05.05 0 0 0 .06 0zm-.65.41h.06zm1-.39a.09.09 0 0 0 -.06 0 .06.06 0 0 0 .06 0 .06.06 0 0 0 0-.06zm-.14-1.53h.07zm-.05.93h-.06zm.76.07a.07.07 0 0 0 -.08 0h.05a.06.06 0 0 0 .03 0zm-2.04.35h-.06z" fill="#231f20"/><path d="m10.27 6.48h3.12v3.98h-3.12z" fill="none" transform="matrix(.88433665 -.46684974 .46684974 .88433665 -2.589998 6.500043)"/><path d="m12.16 9.05v-.05zm-.97-.13h.05zm1.6.84h-.05.07zm-1.48-1.62v-.14h-.08.05zm.82-.43h-.06a.06.06 0 0 0 .06 0zm-.59.34v-.05a.06.06 0 0 0 -.06 0h.06zm.29.38h.05-.08zm-.22.18h.05zm.22.22v.05a.05.05 0 0 0 .05 0zm.23-.51h.05v-.01h-.05zm.47.5a.06.06 0 0 0 -.06 0z" fill="#231f20"/><path d="m11.1 8.33h.47v.6h-.47z" fill="none" transform="matrix(.73526958 -.67777478 .67777478 .73526958 -2.849769 9.959893)"/><g fill="#231f20"><path d="m11.17 8.78h-.01v.01-.01.01h.01-.01zm.19-.03v.01h-.01.01zm-.27-.22h-.01zm.15-.19v.01zm.06.1-.01-.01v.01zm-.09.01h-.01zm-.1-.02v-.01zm.21-.06h-.01zm-.03.44v-.01h-.01v.01zm.11-.11.01-.01h-.02v.01zm-.15.02v-.01l-.01.01zm.27-.11v-.01l-.01.01zm-.06-.07v.01zm-.17.2h-.01v.01h.01zm.08.09v.01zm.21-.18v.01zm-.14.13v.01zm0-.07h.01zm-.02.03h-.01v.01zm.1.04h-.01zm0-.08h-.01zm-.28-.1v-.02l-.01.01v.01zm.02-.09v.01zm.08-.01-.01.01.01.01zm-.23.14h-.01v.01h.01z"/><circle cx="11.49" cy="8.46" transform="matrix(.08298214 -.99655103 .99655103 .08298214 2.110458 19.209498)"/><path d="m11.33 8.62h.01v-.01h-.02v.01zm-.12.05h-.01v.01h.01zm-.05-.19v.01zm.18.2-.01-.01v.02h.01l.01-.01zm.08-.19v-.01h-.01v.01zm-.24.08h-.01zm.37-.04h.01zm-.19-.13-.01.01h.01z"/></g></g><g opacity=".5"><path d="m7.47 8.63h5v3.92h-5z" fill="none" transform="matrix(.97208399 -.23463316 .23463316 .97208399 -2.209872 2.630096)"/><path d="m11.69 9.2v-.06zm.25 2.35h-.05zm-2.78-.73a.05.05 0 0 0 0 .05.07.07 0 0 0 0-.06h.02a.05.05 0 0 0 -.02.01zm.11-.99h-.02zm-.51.92h-.05a.06.06 0 0 0 .05 0zm-.66.61a.23.23 0 0 1 0-.06.08.08 0 0 0 0 .05zm2.44-1.3h.08a.05.05 0 0 0 0 .06zm.57.51h-.07zm-.3.62v-.07h-.1a.07.07 0 0 0 .1.07zm-.24-.82a.08.08 0 0 0 .06-.07v-.05a.08.08 0 0 0 0 .07zm.19-1.47h.06zm-.76 1.7h.07zm-.14-.32h.06v-.06h-.01a.06.06 0 0 0 0 .06zm.01-.88h-.06zm.29.11h-.07zm-.63.97a.1.1 0 0 0 0-.05.06.06 0 0 0 -.06 0 .07.07 0 0 0 0 .05.06.06 0 0 0 0 .06zm1.1 1.34a.06.06 0 0 0 0-.05zm-.55-.91h-.08v.09a.05.05 0 0 0 0-.06zm-.75.43h.07a.08.08 0 0 0 .06-.07h-.08a.07.07 0 0 0 -.05.07z" fill="#231f20"/><path d="m8.06 8.4h4.39v3.44h-4.39z" fill="none" transform="matrix(.81452073 -.58013445 .58013445 .81452073 -3.970264 7.829972)"/><path d="m12.43 9.76s-.01 0 0 0zm-2.76.81h.07a.06.06 0 0 0 0-.05zm0-1.09h-.02zm.54 2.06h-.05zm.51-.37h-.02zm-1.29-1.44h-.03zm-.43 1.62a.2.2 0 0 1 0-.06.07.07 0 0 0 0 .05zm1.55-1.85h.08-.1v.06zm.63.23h-.06zm-.04.6h-.06v.06a.06.06 0 0 0 .06-.06zm-.47-.59a.07.07 0 0 0 0-.07h-.07a.07.07 0 0 0 0 .05zm-.32-1.26h.06zm-.04 1.63h.07-.06zm-.24-.21h.06-.07a.05.05 0 0 0 0 .06zm-.01-.72h-.06zm-.2.99a.09.09 0 0 0 0-.06.05.05 0 0 0 -.06 0 .06.06 0 0 0 0 .06zm.59.17h.07v-.06zm-.45.6a.07.07 0 0 0 0-.08.06.06 0 0 0 0 .08zm.81-1.88v-.06h-.05z" fill="#231f20"/><path d="m9.05 8.59h2.48v1.94h-2.48z" fill="none" transform="matrix(.96140589 -.275134 .275134 .96140589 -2.230083 3.199939)"/><path d="m9.96 8.67v-.01h-.01v.01z" fill="#231f20"/></g><g opacity=".5"><path d="m10.62 2.51h1.98v2.53h-1.98z" fill="none" transform="matrix(.98942477 -.14504699 .14504699 .98942477 -.430023 1.719925)"/><path d="m11.53 3.36h.07zm-.86.63-.01-.01v.02-.01zm.77-.17h-.05z" fill="#231f20"/><path d="m11.01 2.11h2.06v2.63h-2.06z" fill="none" transform="matrix(.84226428 -.53906482 .53906482 .84226428 .04983 7.030296)"/><path d="m11.79 3.06h.06zm.62.56h.06zm-1.17.42-.01-.01v.02zm.76-.85h.06z" fill="#231f20"/><path d="m11.06 1.97h2.84v2.22h-2.84z" fill="none" transform="matrix(.84767794 -.53051118 .53051118 .84767794 .269962 7.090231)"/><path d="m12.27 3.47h-.07.06zm-.43-1.26v-.01h-.02l.01.01zm.61.88h-.06.05z" fill="#231f20"/><path d="m11.31 1.49h3.28v2.57h-3.28z" fill="none" transform="matrix(.24039746 -.97067454 .97067454 .24039746 7.140319 14.680411)"/><path d="m14 1.52s0 .01 0 0zm-1.19.77h.05-.09zm.74.18h-.08zm-.55-.11a.05.05 0 0 0 0-.05zm1.18.63.01.01.01-.02h-.01zm-1.43.01h.05zm.42-.19h.06zm.02.57v-.06z" fill="#231f20"/><path d="m11.98.74h2.92v3.72h-2.92z" fill="none" transform="matrix(.99596311 -.08976347 .08976347 .99596311 -.179979 1.220013)"/><path d="m14.11.86s0 .01 0 0zm-.68 2.65h-.06zm-.32-1.38h-.1zm.89-.08v-.05h-.08v.1a.06.06 0 0 0 .08-.05zm-.66.09v.07h.06zm1.51.23.01.01v-.03l-.01.01zm-1.39.19h.06-.07zm-.15.36h.05zm1.1-.67h-.06zm-.72.31h.07zm.23.6a.06.06 0 0 0 0-.05z" fill="#231f20"/><path d="m12.36.63h3.26v4.16h-3.26z" fill="none" transform="matrix(.92900345 -.37007106 .37007106 .92900345 -.010021 5.369766)"/><path d="m13.83 4.79s0-.01 0 0zm-.12-2.72a.06.06 0 0 0 .05 0zm1 .24h-.05zm-1.57-1.05h.05zm1.35 1.85h.04zm-.89.36h.08-.05a.06.06 0 0 0 -.03 0zm.65-.29a.06.06 0 0 0 .06 0 .06.06 0 0 0 0-.07h-.07zm-.25-.43h-.06zm.23-.17a.05.05 0 0 0 -.05 0zm-.23-.25a.05.05 0 0 0 0-.05.05.05 0 0 0 -.05 0zm-.94 1.07h.05zm.68-.56h-.05zm-.44-.57a.06.06 0 0 0 .06 0z" fill="#231f20"/><path d="m12.75.53h3.58v4.57h-3.58z" fill="none" transform="matrix(.61111267 -.79154362 .79154362 .61111267 3.429406 12.600235)"/><path d="m15.55 4.86s-.01 0 0 0zm-.55-.68h.05zm-1.09-1.82a.07.07 0 0 0 .05 0h-.06zm-.8.84h.05zm.52.39h.05-.06zm1.05-1.72h-.07zm-1.75.05h.06zm2.31.99v.09h.05v-.12h-.07zm-.65.84h.07v-.08h-.06a.07.07 0 0 0 -.01.08zm.41-.64a.07.07 0 0 0 .08 0h-.05zm1.19-.7h-.07zm-2.61 1.86h-.02l.02.03zm.98-1.41v.06h.05v-.05zm.14-.3h.08a.06.06 0 0 0 -.07 0zm.63-.5v-.06zm.08.27h-.05zm-1.05.1a.09.09 0 0 0 .06 0 .06.06 0 0 0 0-.05.06.06 0 0 0 -.07 0 .06.06 0 0 0 0 .05zm-.36 1.57h-.06zm.37-.92h-.08v.06h.07zm-.73-.3v.05a.07.07 0 0 0 .08 0h-.05zm2.12.22h.05-.06z" fill="#231f20"/><path d="m12.65 1.28h4.67v3.66h-4.67z" fill="none" transform="matrix(.01274056 -.99991884 .99991884 .01274056 11.679399 18.049161)"/><path d="m14.12 1.23h-.06.05zm2.65.61s-.02 0 0 0zm-1.77 2.06a.07.07 0 0 0 -.05 0zm-.94-.68h.06zm2.11.78h.06zm-2.04-.43h-.05.06zm.71.68h-.06a.06.06 0 0 0 .06 0zm.4.75h-.05zm-.61-2.52v-.1h-.11v.05zm1.08.01h-.1v.08a.07.07 0 0 0 .1-.08zm-.8.03a.07.07 0 0 0 0-.07h-.06a.06.06 0 0 0 0 .09h.08zm.09.54h.08v-.06h-.08zm-.33.08a.07.07 0 0 0 0-.05h-.06a.06.06 0 0 0 0 .05zm.11.35a.09.09 0 0 0 0-.05.06.06 0 0 0 0 .06.06.06 0 0 0 .06 0zm1.46-.69h-.07zm-.94.28h.08v-.05zm.21.78a.07.07 0 0 0 0-.07.07.07 0 0 0 0 .05zm.81-1.86h-.05z" fill="#231f20"/><path d="m12.98 1.64h4.77v3.74h-4.77z" fill="none" transform="matrix(.72115594 -.69277276 .69277276 .72115594 1.850027 11.62029)"/><path d="m13.09 4.24s.01-.01 0 0zm.79-.45h.05zm2.04-.85a.07.07 0 0 0 0 .06.05.05 0 0 0 0-.06zm.18 1.17h.07zm-.91-2.11a.05.05 0 0 0 0 .05h.06zm-.49.46h.06zm1.61 1.34h.05zm-.25-1.2h-.05zm.48-.6a.22.22 0 0 1 0 .06.07.07 0 0 0 0-.06zm-1.39 2.22h-.09.11a.05.05 0 0 0 0-.07zm-.71-.14h.06zm-.05-.66h.06v.01a.07.07 0 0 0 -.06-.01zm.61.58a.07.07 0 0 0 0 .08.06.06 0 0 0 0-.08zm.53 1.29v-.02zm-.21-1.76h-.07zm.28.19a.07.07 0 0 0 0 .05.06.06 0 0 0 0-.07zm.18-.33a.09.09 0 0 0 0 .06.06.06 0 0 0 .06 0 .06.06 0 0 0 0-.07.06.06 0 0 0 -.05 0zm-.66-.09h-.08a.05.05 0 0 0 0 .07zm.41-.71h-.07a.07.07 0 0 0 0 .09.07.07 0 0 0 0-.05.06.06 0 0 0 .07-.04zm-.59 2.15h.06z" fill="#231f20"/><path d="m13.39 2.06h4.73v3.71h-4.73z" fill="none" transform="matrix(.7602926 -.64958075 .64958075 .7602926 1.230334 11.17007)"/><path d="m14.27 4.1h.05zm2.07-.73h-.07a.07.07 0 0 0 0 .06zm.11 1.17h.07zm-.78-2.16a.05.05 0 0 0 0 .05h.06zm-.51.45h.06zm1.52 1.42h.05zm.32-1.78a.22.22 0 0 1 0 .06.07.07 0 0 0 0-.06zm-1.5 2.13h-.09.1a.05.05 0 0 0 0-.07zm-.7-.18h.06zm-.01-.65h.06v.01a.07.07 0 0 0 -.06-.01zm.55.59a.07.07 0 0 0 0 .08.06.06 0 0 0 0-.05.07.07 0 0 0 0-.06zm.47 1.32v-.03h-.05zm-.11-1.75h-.07zm.3.2h-.07a.07.07 0 0 0 0 .05h.07a.06.06 0 0 0 0-.07zm.06.77h.05zm.12-1.08a.09.09 0 0 0 0 .06.06.06 0 0 0 .06 0 .06.06 0 0 0 0-.07zm-.66-.13h-.08a.05.05 0 0 0 0 .07zm.48-.69h-.07a.07.07 0 0 0 0 .08.07.07 0 0 0 0-.05.06.06 0 0 0 .07-.03zm-.74 2.1h.06z" fill="#231f20"/><path d="m13.77 2.52h4.66v3.66h-4.66z" fill="none" transform="matrix(.65024399 -.75972545 .75972545 .65024399 2.330475 13.75016)"/><path d="m14.69 4.76h.05zm1.9-1.03a.07.07 0 0 0 0 .05zm.28 1.13h.06zm-1.09-1.99a.05.05 0 0 0 0 .05zm-.43.51h.06zm1.74-.63a.21.21 0 0 1 0 .06.07.07 0 0 0 0-.06zm-1.09 2.31h-.09.09v-.07zm-.75-.06h.06zm-.11-.65h.06a.07.07 0 0 0 -.06 0zm.63.5a.07.07 0 0 0 0 .08.06.06 0 0 0 0-.05zm.28-.48h-.05zm.3.16a.07.07 0 0 0 0 .05.06.06 0 0 0 0-.07zm.15-.34a.09.09 0 0 0 0 .06.06.06 0 0 0 .06 0 .06.06 0 0 0 0-.07.06.06 0 0 0 -.05 0zm-.66-.02v-.08h-.04v.07zm.34-.73h-.06a.07.07 0 0 0 0 .09.07.07 0 0 0 0-.05.06.06 0 0 0 .06-.04zm-.38 2.14h.06z" fill="#231f20"/><path d="m14.63 2.5h3.6v4.6h-3.6z" fill="none" transform="matrix(.47116583 -.88204465 .88204465 .47116583 4.459517 17.030046)"/><path d="m17.77 6.67s0-.01 0 0zm-.64-.6h.05zm-2.05-.65h.05zm.58.3h.05-.06zm.75-1.88h-.07zm-1.73.34h.05zm2.46.6h-.02zm.08.7h-.05zm-.58.24h.07v-.1h-.06a.07.07 0 0 0 -.01.1zm.36-.72a.07.07 0 0 0 .08 0zm-1.28 1.41h-.02l.03.02-.01-.01zm.74-1.57v.06h.05v-.05zm.08-.32h.07a.06.06 0 0 0 -.07 0zm.67-.35h-.06zm-1.02.28a.09.09 0 0 0 .06 0 .06.06 0 0 0 0-.05.06.06 0 0 0 -.07 0 .06.06 0 0 0 0 .06zm-.06 1.55h-.07zm.18-.91h.07zm-.78-.17v.08a.07.07 0 0 0 .08 0h-.05zm2.15-.1h.05z" fill="#231f20"/><path d="m14.95 3.1h3.45v4.4h-3.45z" fill="none" transform="matrix(.94512011 -.32672308 .32672308 .94512011 -.819723 5.739846)"/><path d="m18 6.69h.05zm-1.59-2.08a.06.06 0 0 0 .05 0zm1.04.3h-.06zm-1.92.54h.05zm.32-1.72h.06zm1.34 2.02h.05zm-.97.33h.08v-.08a.06.06 0 0 0 -.08.08zm.7-.27a.07.07 0 0 0 .06 0 .06.06 0 0 0 0-.08h-.07zm-.25-.46h-.06.08zm.27-.17h.06a.05.05 0 0 0 -.05 0zm-.21-.28a.05.05 0 0 0 0-.05.06.06 0 0 0 -.05 0 .06.06 0 0 0 -.05 0zm-1.07 1.1h.06zm.74-.58h-.06.05zm-.4-.62a.07.07 0 0 0 .06 0zm1.54 1.33h.05z" fill="#231f20"/><path d="m14.92 4.23h4.01v3.14h-4.01z" fill="none" transform="matrix(.48648788 -.87368733 .87368733 .48648788 3.629769 17.759673)"/><path d="m18.57 4.65s0 .01 0 0zm-.85 1.83h-.05zm-.8-1.31h.08-.1v.06zm.81.46h-.09v.08a.06.06 0 0 0 .09-.08zm-.61-.31a.06.06 0 0 0 0-.07zm1.19 1.12.01.02.02-.03h-.02zm-1.63-.75v.06zm-.06.31a.08.08 0 0 0 0-.05.05.05 0 0 0 0 .06.05.05 0 0 0 .05 0zm.55-.1v.04zm-.17.68h.05a.06.06 0 0 0 0-.07zm0-1.87h-.05z" fill="#231f20"/><path d="m15.22 5.15h2.67v2.1h-2.67z" fill="none" transform="matrix(.9890674 -.14746417 .14746417 .9890674 -.729957 2.509991)"/><path d="m15.28 5.79s.01 0 0 0zm.95.66h-.06zm.1-1.25h.01l-.02-.01z" fill="#231f20"/><path d="m15.7 6.23h.95v.74h-.95z" fill="none" transform="matrix(.46422381 -.88571793 .88571793 .46422381 2.81937 17.860839)"/><g fill="#231f20"><path d="m15.85 6.44v-.01h-.01v.01zm.14.27v-.01zm.2-.53v-.01h-.01v.01zm.18.14h.01l-.01-.01zm-.01-.16h-.01.01-.01v.01zm.25.37h.01zm-.06-.09v-.01zm-.67.19v-.01h-.01v.01zm.48.13.01-.01-.01-.01-.01.01zm-.39-.16h.01v-.01h-.02v.01h.01v.01zm-.09.17h.01zm.38.22h-.01l.01.01zm-.27-.15v.01zm.06.12-.01-.01v.01zm.11-.04v-.01h-.01zm.15-.49v-.01h-.01v.02zm-.28-.16h-.01v.01h.01z"/><circle cx="16.51" cy="6.75" transform="matrix(.96592583 -.25881905 .25881905 .96592583 -1.174904 4.459716)"/><path d="m15.99 6.46h-.01v.01zm.05-.02v-.01h-.01v.01zm.25-.17v-.01zm.14.39.01-.01-.01-.01h-.01v.02zm-.56.32.01-.01h-.01zm.3-.64h.01v-.01h-.02v.01zm.26.54v.01h.01v-.01zm.09-.36-.01-.01v.01z"/></g></g><g opacity=".5"><path d="m10.34 15.39h2.71v3.45h-2.71z" fill="none" transform="matrix(.45818421 -.88885726 .88885726 .45818421 -8.880354 19.669641)"/><path d="m12.73 18.51s-.01 0 0 0zm-1.56-1.64h-.06zm-.48.73h.05zm.98-1.2h-.05zm.19 1.41h.05-.08a.05.05 0 0 0 .03 0zm.25-.54a.05.05 0 0 0 .06 0zm.76-.68h-.06zm-1.69 1.75h-.02l.03.02v-.02zm.6-1.43h.06zm-.27-.05h.08zm-.02 1.2h-.05zm.12-.72h-.06zm-.61-.12a.05.05 0 0 0 .06 0z" fill="#231f20"/><path d="m10.73 15h2.69v3.43h-2.69z" fill="none" transform="matrix(.99757621 -.06958236 .06958236 .99757621 -1.129994 .880031)"/><path d="m11.43 18.31s0-.01 0 0zm-.59-.56s.02.01 0 0zm1.53-.59h.09zm-.79.05h.07v-.06a.05.05 0 0 0 -.07.06zm.58-.06v-.07h-.06zm-1.38-.25-.01-.01-.01.03.02-.01zm1.29-.15h-.07zm-.89.25h.05zm.67-.25h-.07zm-.2-.55a.05.05 0 0 0 0 .05z" fill="#231f20"/><path d="m11.15 14.63h2.63v3.36h-2.63z" fill="none" transform="matrix(.57514804 -.81804935 .81804935 .57514804 -8.050004 17.119776)"/><path d="m11.43 16.64h.05zm1.1.36h.05-.07zm.31-.49a.05.05 0 0 0 .06 0zm.82-.51h-.06zm-1.86 1.41h-.01l.02.02v-.01zm.77-1.29h.06zm-.25-.12h.08zm.03.51h-.06zm-.55-.19a.05.05 0 0 0 .06 0z" fill="#231f20"/><path d="m11.59 14.3h2.51v3.21h-2.51z" fill="none" transform="matrix(.93301635 -.35983397 .35983397 .93301635 -4.860059 5.689919)"/><path d="m13.06 16.4h-.06zm.43.6h-.05zm-1.03-1.41h-.06zm.69-.27h-.07zm-.5.22h.05zm1.3-.16.01.01v-.03l-.01.01zm-1.1.49h.05zm.15-.06h.06z" fill="#231f20"/><path d="m11.96 13.93h2.39v3.06h-2.39z" fill="none" transform="matrix(.16074257 -.98699637 .98699637 .16074257 -4.220258 25.968828)"/><path d="m11.91 14.58s.01 0 0 0zm.81 1.05h-.06zm.05-.18h.06zm.49-1.15.01-.01-.02-.01.01.01zm-.18.32h.05zm.09.63h.06zm.53-.06h-.05z" fill="#231f20"/><path d="m11.88 13.8h2.86v2.25h-2.86z" fill="none" transform="matrix(.3027026 -.95308506 .95308506 .3027026 -4.939838 23.100095)"/><path d="m13.22 14.49h-.08zm.64.2h-.07zm.52.49v.01l.02-.02h-.01zm-1.04-.28h.06zm.17.1h.06zm-.02.46v-.05z" fill="#231f20"/><path d="m12.18 13.38h2.58v2.02h-2.58z" fill="none" transform="matrix(.76199059 -.64758809 .64758809 .76199059 -6.109911 12.149843)"/><path d="m14.72 14.07s0 .01 0 0zm-1.11-.07h.06-.07zm.39.47h-.05zm.16.62v.01l.02-.01zm-.66-.71h.05z" fill="#231f20"/><path d="m12.72 12.71h1.8v2.29h-1.8z" fill="none" transform="matrix(.93257604 -.3609736 .3609736 .93257604 -4.080087 5.85008)"/><path d="m13.9 14.08h.06zm-1.07.15h-.01v.01h.01z" fill="#231f20"/><path d="m13.05 12.39h1.45v1.85h-1.45z" fill="none" transform="matrix(.98685572 -.16160382 .16160382 .98685572 -1.969963 2.400073)"/><g fill="#231f20"><path d="m14.26 13.34v-.01l-.01-.01h-.01l-.01.01v.01l.01.01h.01z"/><circle cx="14.47" cy="13.16" r=".01" transform="matrix(.61744783 -.78661183 .78661183 .61744783 -4.81945 16.420146)"/><path d="m13.48 12.91v-.01h-.01l-.01-.01-.01.01v.01l.01.01h.01z"/></g></g></svg>